<svg xmlns="http://www.w3.org/2000/svg" xmlns:xlink="http://www.w3.org/1999/xlink" width="200" zoomAndPan="magnify" viewBox="0 0 150 149.999998" height="200" preserveAspectRatio="xMidYMid meet" version="1.0"><path fill="#1ccdf4" d="M 0.359375 29.519531 L 6.367188 23.207031 C 9.886719 19.695312 15.8125 20.910156 15.8125 20.910156 L 33.398438 23.316406 L 42.308594 14.613281 C 47 10.011719 51.234375 17.050781 49.390625 19.480469 L 44.820312 24.789062 L 63.761719 28.289062 L 70.1875 20.804688 C 77.058594 12.605469 82.171875 19.996094 79.070312 24.34375 L 74.917969 29.59375 L 103.375 33.296875 C 127.839844 9.785156 137.832031 0.03125 144.265625 5.824219 C 150.746094 11.65625 139.285156 23.28125 116.996094 46.210938 L 121.042969 75.488281 L 127.003906 70.527344 C 130.523438 67.597656 136.773438 72.292969 130.320312 78.40625 L 122.121094 86.125 L 125.578125 105.292969 L 130.703125 101.355469 C 135.230469 97.757812 140.722656 102.519531 134.605469 109.042969 L 126.464844 117.234375 C 126.128906 117.484375 129.121094 134.042969 129.121094 134.042969 C 130.964844 142.15625 126.378906 145.121094 126.378906 145.121094 L 120.792969 149.988281 L 99.554688 90.082031 C 97.792969 84.8125 93.332031 79.085938 85.878906 79.765625 C 81.945312 80.183594 71.996094 86.890625 70.652344 88.480469 L 47.621094 110.597656 C 47.03125 111.015625 51.164062 139.347656 51.164062 139.347656 C 51.164062 140.183594 43.863281 149.746094 43.863281 149.746094 L 29.265625 123.808594 L 22.0625 127.15625 L 26.277344 120.601562 L 0 105.789062 L 9.851562 98.59375 C 14.542969 99.683594 39.144531 102.445312 39.648438 102.195312 C 39.648438 102.195312 59.683594 82.351562 60.828125 81.152344 C 67.445312 74.207031 69.671875 71.609375 70.675781 68.183594 C 71.683594 64.746094 69.96875 59.714844 59.582031 53.347656 C 45.253906 44.5625 0.359375 29.519531 0.359375 29.519531 Z M 0.359375 29.519531 " fill-opacity="1" fill-rule="nonzero"/></svg>