<svg xmlns="http://www.w3.org/2000/svg" xmlns:xlink="http://www.w3.org/1999/xlink" width="1000" zoomAndPan="magnify" viewBox="0 0 750 749.999995" height="1000" preserveAspectRatio="xMidYMid meet" version="1.0"><defs><g/><clipPath id="id1"><path d="M 0 0 L 748.847656 0 L 748.847656 63.75 L 0 63.75 Z M 0 0 " clip-rule="nonzero"/></clipPath><clipPath id="id2"><path d="M 18.398438 20.972656 L 39.371094 20.972656 L 39.371094 41.945312 L 18.398438 41.945312 Z M 18.398438 20.972656 " clip-rule="nonzero"/></clipPath><clipPath id="id3"><path d="M 49.042969 20.972656 L 70.015625 20.972656 L 70.015625 41.945312 L 49.042969 41.945312 Z M 49.042969 20.972656 " clip-rule="nonzero"/></clipPath><clipPath id="id4"><path d="M 80.675781 20.191406 L 101.648438 20.191406 L 101.648438 41.160156 L 80.675781 41.160156 Z M 80.675781 20.191406 " clip-rule="nonzero"/></clipPath><clipPath id="id5"><path d="M 78.023438 411.546875 L 671 411.546875 L 671 416.046875 L 78.023438 416.046875 Z M 78.023438 411.546875 " clip-rule="nonzero"/></clipPath><clipPath id="id6"><path d="M 292 98 L 485 98 L 485 288 L 292 288 Z M 292 98 " clip-rule="nonzero"/></clipPath><clipPath id="id7"><path d="M 376.222656 75 L 493.957031 192.734375 L 376.222656 310.46875 L 258.488281 192.734375 Z M 376.222656 75 " clip-rule="nonzero"/></clipPath><clipPath id="id8"><path d="M 376.222656 75 L 493.957031 192.734375 L 376.222656 310.46875 L 258.488281 192.734375 Z M 376.222656 75 " clip-rule="nonzero"/></clipPath><clipPath id="id9"><path d="M 226.441406 615 L 526.441406 615 L 526.441406 675 L 226.441406 675 Z M 226.441406 615 " clip-rule="nonzero"/></clipPath></defs><rect x="-75" width="900" fill="#ffffff" y="-74.999999" height="899.999994" fill-opacity="1"/><rect x="-75" width="900" fill="#ffffff" y="-74.999999" height="899.999994" fill-opacity="1"/><rect x="-75" width="900" fill="#ffffff" y="-74.999999" height="899.999994" fill-opacity="1"/><rect x="-75" width="900" fill="#ffffff" y="-74.999999" height="899.999994" fill-opacity="1"/><path fill="#1ccdf4" d="M 742.808594 0 L -0.402344 0 L -0.402344 750 L 750.347656 750 L 750.347656 0 L 742.808594 0 M 742.808594 742.460938 L 7.222656 742.460938 L 7.222656 7.625 L 742.808594 7.625 L 742.808594 742.460938 " fill-opacity="1" fill-rule="nonzero"/><g clip-path="url(#id1)"><path fill="#1ccdf4" d="M -0.402344 -342.792969 L 748.847656 -342.792969 L 748.847656 406.457031 L -0.402344 406.457031 Z M -0.402344 -342.792969 " fill-opacity="1" fill-rule="nonzero"/></g><g clip-path="url(#id2)"><path fill="#ffffff" d="M 28.886719 20.972656 C 28.199219 20.972656 27.515625 21.039062 26.839844 21.171875 C 26.164062 21.308594 25.507812 21.507812 24.875 21.769531 C 24.238281 22.035156 23.632812 22.355469 23.058594 22.738281 C 22.488281 23.121094 21.957031 23.554688 21.472656 24.042969 C 20.984375 24.53125 20.550781 25.058594 20.167969 25.632812 C 19.785156 26.203125 19.460938 26.808594 19.199219 27.445312 C 18.933594 28.082031 18.734375 28.738281 18.601562 29.410156 C 18.46875 30.085938 18.398438 30.769531 18.398438 31.457031 C 18.398438 32.144531 18.46875 32.828125 18.601562 33.503906 C 18.734375 34.179688 18.933594 34.835938 19.199219 35.46875 C 19.460938 36.105469 19.785156 36.710938 20.167969 37.28125 C 20.550781 37.855469 20.984375 38.386719 21.472656 38.871094 C 21.957031 39.359375 22.488281 39.792969 23.058594 40.175781 C 23.632812 40.558594 24.238281 40.882812 24.875 41.144531 C 25.507812 41.410156 26.164062 41.609375 26.839844 41.742188 C 27.515625 41.875 28.199219 41.945312 28.886719 41.945312 C 29.574219 41.945312 30.257812 41.875 30.933594 41.742188 C 31.605469 41.609375 32.261719 41.410156 32.898438 41.144531 C 33.535156 40.882812 34.140625 40.558594 34.710938 40.175781 C 35.285156 39.792969 35.8125 39.359375 36.300781 38.871094 C 36.789062 38.386719 37.222656 37.855469 37.605469 37.28125 C 37.988281 36.710938 38.308594 36.105469 38.574219 35.46875 C 38.835938 34.835938 39.035156 34.179688 39.171875 33.503906 C 39.304688 32.828125 39.371094 32.144531 39.371094 31.457031 C 39.371094 30.769531 39.304688 30.085938 39.171875 29.410156 C 39.035156 28.738281 38.835938 28.082031 38.574219 27.445312 C 38.308594 26.808594 37.988281 26.203125 37.605469 25.632812 C 37.222656 25.058594 36.789062 24.53125 36.300781 24.042969 C 35.8125 23.554688 35.285156 23.121094 34.710938 22.738281 C 34.140625 22.355469 33.535156 22.035156 32.898438 21.769531 C 32.261719 21.507812 31.605469 21.308594 30.933594 21.171875 C 30.257812 21.039062 29.574219 20.972656 28.886719 20.972656 Z M 28.886719 20.972656 " fill-opacity="1" fill-rule="nonzero"/></g><g clip-path="url(#id3)"><path fill="#ffffff" d="M 59.53125 20.972656 C 58.839844 20.972656 58.160156 21.039062 57.484375 21.171875 C 56.808594 21.308594 56.152344 21.507812 55.515625 21.769531 C 54.882812 22.035156 54.277344 22.355469 53.703125 22.738281 C 53.132812 23.121094 52.601562 23.554688 52.113281 24.042969 C 51.628906 24.53125 51.195312 25.058594 50.8125 25.632812 C 50.429688 26.203125 50.105469 26.808594 49.84375 27.445312 C 49.578125 28.082031 49.378906 28.738281 49.246094 29.410156 C 49.109375 30.085938 49.042969 30.769531 49.042969 31.457031 C 49.042969 32.144531 49.109375 32.828125 49.246094 33.503906 C 49.378906 34.179688 49.578125 34.835938 49.84375 35.46875 C 50.105469 36.105469 50.429688 36.710938 50.8125 37.28125 C 51.195312 37.855469 51.628906 38.386719 52.113281 38.871094 C 52.601562 39.359375 53.132812 39.792969 53.703125 40.175781 C 54.277344 40.558594 54.882812 40.882812 55.515625 41.144531 C 56.152344 41.410156 56.808594 41.609375 57.484375 41.742188 C 58.160156 41.875 58.839844 41.945312 59.53125 41.945312 C 60.21875 41.945312 60.898438 41.875 61.574219 41.742188 C 62.25 41.609375 62.90625 41.410156 63.542969 41.144531 C 64.179688 40.882812 64.78125 40.558594 65.355469 40.175781 C 65.929688 39.792969 66.457031 39.359375 66.945312 38.871094 C 67.429688 38.386719 67.867188 37.855469 68.25 37.28125 C 68.632812 36.710938 68.953125 36.105469 69.21875 35.46875 C 69.480469 34.835938 69.679688 34.179688 69.8125 33.503906 C 69.949219 32.828125 70.015625 32.144531 70.015625 31.457031 C 70.015625 30.769531 69.949219 30.085938 69.8125 29.410156 C 69.679688 28.738281 69.480469 28.082031 69.21875 27.445312 C 68.953125 26.808594 68.632812 26.203125 68.25 25.632812 C 67.867188 25.058594 67.429688 24.53125 66.945312 24.042969 C 66.457031 23.554688 65.929688 23.121094 65.355469 22.738281 C 64.78125 22.355469 64.179688 22.035156 63.542969 21.769531 C 62.90625 21.507812 62.25 21.308594 61.574219 21.171875 C 60.898438 21.039062 60.21875 20.972656 59.53125 20.972656 Z M 59.53125 20.972656 " fill-opacity="1" fill-rule="nonzero"/></g><g clip-path="url(#id4)"><path fill="#ffffff" d="M 91.160156 20.191406 C 90.472656 20.191406 89.792969 20.257812 89.117188 20.390625 C 88.441406 20.527344 87.785156 20.726562 87.148438 20.988281 C 86.511719 21.25 85.910156 21.574219 85.335938 21.957031 C 84.765625 22.339844 84.234375 22.773438 83.746094 23.261719 C 83.261719 23.75 82.824219 24.277344 82.441406 24.851562 C 82.0625 25.421875 81.738281 26.027344 81.472656 26.664062 C 81.210938 27.300781 81.011719 27.953125 80.878906 28.628906 C 80.742188 29.304688 80.675781 29.988281 80.675781 30.675781 C 80.675781 31.363281 80.742188 32.046875 80.878906 32.722656 C 81.011719 33.398438 81.210938 34.050781 81.472656 34.6875 C 81.738281 35.324219 82.0625 35.929688 82.441406 36.5 C 82.824219 37.074219 83.261719 37.605469 83.746094 38.089844 C 84.234375 38.578125 84.765625 39.011719 85.335938 39.394531 C 85.910156 39.777344 86.511719 40.101562 87.148438 40.363281 C 87.785156 40.628906 88.441406 40.824219 89.117188 40.960938 C 89.792969 41.09375 90.472656 41.160156 91.160156 41.160156 C 91.851562 41.160156 92.53125 41.09375 93.207031 40.960938 C 93.882812 40.824219 94.539062 40.628906 95.175781 40.363281 C 95.8125 40.101562 96.414062 39.777344 96.988281 39.394531 C 97.558594 39.011719 98.089844 38.578125 98.578125 38.089844 C 99.0625 37.605469 99.496094 37.074219 99.878906 36.5 C 100.261719 35.929688 100.585938 35.324219 100.847656 34.6875 C 101.113281 34.050781 101.3125 33.398438 101.445312 32.722656 C 101.582031 32.046875 101.648438 31.363281 101.648438 30.675781 C 101.648438 29.988281 101.582031 29.304688 101.445312 28.628906 C 101.3125 27.953125 101.113281 27.300781 100.847656 26.664062 C 100.585938 26.027344 100.261719 25.421875 99.878906 24.851562 C 99.496094 24.277344 99.0625 23.75 98.578125 23.261719 C 98.089844 22.773438 97.558594 22.339844 96.988281 21.957031 C 96.414062 21.574219 95.8125 21.25 95.175781 20.988281 C 94.539062 20.726562 93.882812 20.527344 93.207031 20.390625 C 92.53125 20.257812 91.851562 20.191406 91.160156 20.191406 Z M 91.160156 20.191406 " fill-opacity="1" fill-rule="nonzero"/></g><g fill="#1ccdf4" fill-opacity="1"><g transform="translate(68.770963, 490.784558)"><g><path d="M 12.984375 -18.90625 L 12.671875 -16.8125 L 5.34375 -16.8125 L 5.34375 -10.640625 L 11.71875 -10.640625 L 11.71875 -8.5625 L 5.34375 -8.5625 L 5.34375 -2.078125 L 13.203125 -2.078125 L 13.203125 0 L 2.75 0 L 2.75 -18.90625 Z M 12.984375 -18.90625 "/></g></g></g><g fill="#1ccdf4" fill-opacity="1"><g transform="translate(84.820071, 490.784558)"><g><path d="M 6.53125 -14.78125 C 7.519531 -14.78125 8.40625 -14.644531 9.1875 -14.375 C 9.976562 -14.101562 10.726562 -13.691406 11.4375 -13.140625 L 10.375 -11.546875 C 9.71875 -11.972656 9.085938 -12.285156 8.484375 -12.484375 C 7.890625 -12.679688 7.265625 -12.78125 6.609375 -12.78125 C 5.785156 -12.78125 5.132812 -12.609375 4.65625 -12.265625 C 4.1875 -11.929688 3.953125 -11.472656 3.953125 -10.890625 C 3.953125 -10.304688 4.175781 -9.847656 4.625 -9.515625 C 5.070312 -9.191406 5.878906 -8.875 7.046875 -8.5625 C 8.660156 -8.15625 9.863281 -7.601562 10.65625 -6.90625 C 11.457031 -6.21875 11.859375 -5.269531 11.859375 -4.0625 C 11.859375 -2.632812 11.300781 -1.546875 10.1875 -0.796875 C 9.082031 -0.046875 7.734375 0.328125 6.140625 0.328125 C 3.953125 0.328125 2.132812 -0.300781 0.6875 -1.5625 L 2.03125 -3.09375 C 3.257812 -2.164062 4.613281 -1.703125 6.09375 -1.703125 C 7.039062 -1.703125 7.789062 -1.894531 8.34375 -2.28125 C 8.90625 -2.675781 9.1875 -3.210938 9.1875 -3.890625 C 9.1875 -4.390625 9.085938 -4.789062 8.890625 -5.09375 C 8.691406 -5.394531 8.34375 -5.660156 7.84375 -5.890625 C 7.351562 -6.117188 6.628906 -6.359375 5.671875 -6.609375 C 4.140625 -7.015625 3.03125 -7.554688 2.34375 -8.234375 C 1.65625 -8.910156 1.3125 -9.769531 1.3125 -10.8125 C 1.3125 -11.5625 1.535156 -12.242188 1.984375 -12.859375 C 2.429688 -13.472656 3.050781 -13.945312 3.84375 -14.28125 C 4.644531 -14.613281 5.539062 -14.78125 6.53125 -14.78125 Z M 6.53125 -14.78125 "/></g></g></g><g fill="#1ccdf4" fill-opacity="1"><g transform="translate(99.003631, 490.784558)"><g><path d="M 9.90625 -0.65625 C 8.957031 0 7.878906 0.328125 6.671875 0.328125 C 5.441406 0.328125 4.484375 -0.0195312 3.796875 -0.71875 C 3.109375 -1.425781 2.765625 -2.445312 2.765625 -3.78125 L 2.765625 -12.515625 L 0.25 -12.515625 L 0.25 -14.453125 L 2.765625 -14.453125 L 2.765625 -17.71875 L 5.296875 -18.03125 L 5.296875 -14.453125 L 8.71875 -14.453125 L 8.453125 -12.515625 L 5.296875 -12.515625 L 5.296875 -3.890625 C 5.296875 -3.140625 5.425781 -2.59375 5.6875 -2.25 C 5.957031 -1.914062 6.40625 -1.75 7.03125 -1.75 C 7.59375 -1.75 8.226562 -1.941406 8.9375 -2.328125 Z M 9.90625 -0.65625 "/></g></g></g><g fill="#1ccdf4" fill-opacity="1"><g transform="translate(110.279157, 490.784558)"><g><path d="M 12.34375 -3.375 C 12.34375 -2.789062 12.441406 -2.351562 12.640625 -2.0625 C 12.847656 -1.78125 13.148438 -1.566406 13.546875 -1.421875 L 12.984375 0.328125 C 12.234375 0.234375 11.628906 0.0234375 11.171875 -0.296875 C 10.710938 -0.628906 10.375 -1.144531 10.15625 -1.84375 C 9.1875 -0.394531 7.75 0.328125 5.84375 0.328125 C 4.414062 0.328125 3.289062 -0.0703125 2.46875 -0.875 C 1.644531 -1.675781 1.234375 -2.726562 1.234375 -4.03125 C 1.234375 -5.570312 1.785156 -6.753906 2.890625 -7.578125 C 3.992188 -8.398438 5.5625 -8.8125 7.59375 -8.8125 L 9.828125 -8.8125 L 9.828125 -9.875 C 9.828125 -10.894531 9.578125 -11.625 9.078125 -12.0625 C 8.585938 -12.507812 7.828125 -12.734375 6.796875 -12.734375 C 5.742188 -12.734375 4.445312 -12.476562 2.90625 -11.96875 L 2.28125 -13.796875 C 4.070312 -14.453125 5.734375 -14.78125 7.265625 -14.78125 C 8.972656 -14.78125 10.242188 -14.363281 11.078125 -13.53125 C 11.921875 -12.707031 12.34375 -11.523438 12.34375 -9.984375 Z M 6.421875 -1.5625 C 7.867188 -1.5625 9.003906 -2.3125 9.828125 -3.8125 L 9.828125 -7.140625 L 7.921875 -7.140625 C 5.253906 -7.140625 3.921875 -6.148438 3.921875 -4.171875 C 3.921875 -3.304688 4.128906 -2.65625 4.546875 -2.21875 C 4.972656 -1.78125 5.597656 -1.5625 6.421875 -1.5625 Z M 6.421875 -1.5625 "/></g></g></g><g fill="#1ccdf4" fill-opacity="1"><g transform="translate(126.575178, 490.784558)"><g/></g></g><g fill="#1ccdf4" fill-opacity="1"><g transform="translate(135.217005, 490.784558)"><g><path d="M 9.25 -14.78125 C 11.09375 -14.78125 12.441406 -14.125 13.296875 -12.8125 C 14.160156 -11.5 14.59375 -9.644531 14.59375 -7.25 C 14.59375 -4.976562 14.097656 -3.144531 13.109375 -1.75 C 12.128906 -0.363281 10.734375 0.328125 8.921875 0.328125 C 7.304688 0.328125 6.039062 -0.21875 5.125 -1.3125 L 5.125 5.546875 L 2.609375 5.84375 L 2.609375 -14.453125 L 4.78125 -14.453125 L 4.96875 -12.515625 C 5.5 -13.242188 6.140625 -13.800781 6.890625 -14.1875 C 7.640625 -14.582031 8.425781 -14.78125 9.25 -14.78125 Z M 8.3125 -1.734375 C 10.6875 -1.734375 11.875 -3.570312 11.875 -7.25 C 11.875 -10.9375 10.785156 -12.78125 8.609375 -12.78125 C 7.898438 -12.78125 7.253906 -12.570312 6.671875 -12.15625 C 6.085938 -11.738281 5.570312 -11.195312 5.125 -10.53125 L 5.125 -3.484375 C 5.488281 -2.921875 5.945312 -2.488281 6.5 -2.1875 C 7.050781 -1.882812 7.65625 -1.734375 8.3125 -1.734375 Z M 8.3125 -1.734375 "/></g></g></g><g fill="#1ccdf4" fill-opacity="1"><g transform="translate(152.884745, 490.784558)"><g><path d="M 12.34375 -3.375 C 12.34375 -2.789062 12.441406 -2.351562 12.640625 -2.0625 C 12.847656 -1.78125 13.148438 -1.566406 13.546875 -1.421875 L 12.984375 0.328125 C 12.234375 0.234375 11.628906 0.0234375 11.171875 -0.296875 C 10.710938 -0.628906 10.375 -1.144531 10.15625 -1.84375 C 9.1875 -0.394531 7.75 0.328125 5.84375 0.328125 C 4.414062 0.328125 3.289062 -0.0703125 2.46875 -0.875 C 1.644531 -1.675781 1.234375 -2.726562 1.234375 -4.03125 C 1.234375 -5.570312 1.785156 -6.753906 2.890625 -7.578125 C 3.992188 -8.398438 5.5625 -8.8125 7.59375 -8.8125 L 9.828125 -8.8125 L 9.828125 -9.875 C 9.828125 -10.894531 9.578125 -11.625 9.078125 -12.0625 C 8.585938 -12.507812 7.828125 -12.734375 6.796875 -12.734375 C 5.742188 -12.734375 4.445312 -12.476562 2.90625 -11.96875 L 2.28125 -13.796875 C 4.070312 -14.453125 5.734375 -14.78125 7.265625 -14.78125 C 8.972656 -14.78125 10.242188 -14.363281 11.078125 -13.53125 C 11.921875 -12.707031 12.34375 -11.523438 12.34375 -9.984375 Z M 6.421875 -1.5625 C 7.867188 -1.5625 9.003906 -2.3125 9.828125 -3.8125 L 9.828125 -7.140625 L 7.921875 -7.140625 C 5.253906 -7.140625 3.921875 -6.148438 3.921875 -4.171875 C 3.921875 -3.304688 4.128906 -2.65625 4.546875 -2.21875 C 4.972656 -1.78125 5.597656 -1.5625 6.421875 -1.5625 Z M 9.328125 -21.984375 L 10.453125 -19.859375 L 4.640625 -17.5 L 3.875 -18.84375 Z M 9.328125 -21.984375 "/></g></g></g><g fill="#1ccdf4" fill-opacity="1"><g transform="translate(169.18076, 490.784558)"><g><path d="M 14.265625 -13.796875 C 13.710938 -13.617188 13.109375 -13.5 12.453125 -13.4375 C 11.796875 -13.382812 10.992188 -13.359375 10.046875 -13.359375 C 11.742188 -12.585938 12.59375 -11.375 12.59375 -9.71875 C 12.59375 -8.269531 12.097656 -7.085938 11.109375 -6.171875 C 10.117188 -5.253906 8.773438 -4.796875 7.078125 -4.796875 C 6.421875 -4.796875 5.804688 -4.890625 5.234375 -5.078125 C 5.015625 -4.929688 4.84375 -4.734375 4.71875 -4.484375 C 4.59375 -4.234375 4.53125 -3.984375 4.53125 -3.734375 C 4.53125 -2.941406 5.160156 -2.546875 6.421875 -2.546875 L 8.71875 -2.546875 C 9.6875 -2.546875 10.546875 -2.375 11.296875 -2.03125 C 12.046875 -1.6875 12.625 -1.210938 13.03125 -0.609375 C 13.445312 -0.00390625 13.65625 0.679688 13.65625 1.453125 C 13.65625 2.859375 13.078125 3.941406 11.921875 4.703125 C 10.773438 5.460938 9.097656 5.84375 6.890625 5.84375 C 5.328125 5.84375 4.09375 5.679688 3.1875 5.359375 C 2.289062 5.046875 1.648438 4.566406 1.265625 3.921875 C 0.878906 3.285156 0.6875 2.460938 0.6875 1.453125 L 2.96875 1.453125 C 2.96875 2.035156 3.078125 2.492188 3.296875 2.828125 C 3.515625 3.171875 3.90625 3.429688 4.46875 3.609375 C 5.039062 3.785156 5.847656 3.875 6.890625 3.875 C 8.410156 3.875 9.492188 3.6875 10.140625 3.3125 C 10.785156 2.9375 11.109375 2.375 11.109375 1.625 C 11.109375 0.945312 10.851562 0.429688 10.34375 0.078125 C 9.832031 -0.265625 9.117188 -0.4375 8.203125 -0.4375 L 5.921875 -0.4375 C 4.703125 -0.4375 3.773438 -0.695312 3.140625 -1.21875 C 2.503906 -1.738281 2.1875 -2.394531 2.1875 -3.1875 C 2.1875 -3.65625 2.320312 -4.109375 2.59375 -4.546875 C 2.875 -4.992188 3.269531 -5.390625 3.78125 -5.734375 C 2.945312 -6.171875 2.332031 -6.710938 1.9375 -7.359375 C 1.539062 -8.015625 1.34375 -8.804688 1.34375 -9.734375 C 1.34375 -10.703125 1.582031 -11.570312 2.0625 -12.34375 C 2.550781 -13.113281 3.21875 -13.710938 4.0625 -14.140625 C 4.914062 -14.566406 5.867188 -14.78125 6.921875 -14.78125 C 8.046875 -14.769531 8.992188 -14.8125 9.765625 -14.90625 C 10.535156 -15.007812 11.171875 -15.144531 11.671875 -15.3125 C 12.171875 -15.488281 12.789062 -15.742188 13.53125 -16.078125 Z M 6.921875 -12.984375 C 5.960938 -12.984375 5.222656 -12.679688 4.703125 -12.078125 C 4.179688 -11.484375 3.921875 -10.703125 3.921875 -9.734375 C 3.921875 -8.753906 4.1875 -7.960938 4.71875 -7.359375 C 5.25 -6.765625 6 -6.46875 6.96875 -6.46875 C 7.957031 -6.46875 8.710938 -6.753906 9.234375 -7.328125 C 9.753906 -7.910156 10.015625 -8.722656 10.015625 -9.765625 C 10.015625 -11.910156 8.984375 -12.984375 6.921875 -12.984375 Z M 6.921875 -12.984375 "/></g></g></g><g fill="#1ccdf4" fill-opacity="1"><g transform="translate(184.818368, 490.784558)"><g><path d="M 5.125 -14.453125 L 5.125 0 L 2.609375 0 L 2.609375 -14.453125 Z M 3.84375 -21.40625 C 4.375 -21.40625 4.800781 -21.238281 5.125 -20.90625 C 5.457031 -20.570312 5.625 -20.160156 5.625 -19.671875 C 5.625 -19.179688 5.457031 -18.773438 5.125 -18.453125 C 4.800781 -18.128906 4.375 -17.96875 3.84375 -17.96875 C 3.332031 -17.96875 2.910156 -18.128906 2.578125 -18.453125 C 2.253906 -18.773438 2.09375 -19.179688 2.09375 -19.671875 C 2.09375 -20.160156 2.253906 -20.570312 2.578125 -20.90625 C 2.910156 -21.238281 3.332031 -21.40625 3.84375 -21.40625 Z M 3.84375 -21.40625 "/></g></g></g><g fill="#1ccdf4" fill-opacity="1"><g transform="translate(193.92656, 490.784558)"><g><path d="M 9.40625 -14.78125 C 10.726562 -14.78125 11.757812 -14.382812 12.5 -13.59375 C 13.238281 -12.8125 13.609375 -11.738281 13.609375 -10.375 L 13.609375 0 L 11.078125 0 L 11.078125 -10.015625 C 11.078125 -11.035156 10.882812 -11.753906 10.5 -12.171875 C 10.125 -12.597656 9.5625 -12.8125 8.8125 -12.8125 C 8.039062 -12.8125 7.363281 -12.59375 6.78125 -12.15625 C 6.195312 -11.71875 5.644531 -11.085938 5.125 -10.265625 L 5.125 0 L 2.609375 0 L 2.609375 -14.453125 L 4.78125 -14.453125 L 5 -12.3125 C 5.507812 -13.082031 6.144531 -13.6875 6.90625 -14.125 C 7.664062 -14.5625 8.5 -14.78125 9.40625 -14.78125 Z M 9.40625 -14.78125 "/></g></g></g><g fill="#1ccdf4" fill-opacity="1"><g transform="translate(211.374808, 490.784558)"><g><path d="M 12.34375 -3.375 C 12.34375 -2.789062 12.441406 -2.351562 12.640625 -2.0625 C 12.847656 -1.78125 13.148438 -1.566406 13.546875 -1.421875 L 12.984375 0.328125 C 12.234375 0.234375 11.628906 0.0234375 11.171875 -0.296875 C 10.710938 -0.628906 10.375 -1.144531 10.15625 -1.84375 C 9.1875 -0.394531 7.75 0.328125 5.84375 0.328125 C 4.414062 0.328125 3.289062 -0.0703125 2.46875 -0.875 C 1.644531 -1.675781 1.234375 -2.726562 1.234375 -4.03125 C 1.234375 -5.570312 1.785156 -6.753906 2.890625 -7.578125 C 3.992188 -8.398438 5.5625 -8.8125 7.59375 -8.8125 L 9.828125 -8.8125 L 9.828125 -9.875 C 9.828125 -10.894531 9.578125 -11.625 9.078125 -12.0625 C 8.585938 -12.507812 7.828125 -12.734375 6.796875 -12.734375 C 5.742188 -12.734375 4.445312 -12.476562 2.90625 -11.96875 L 2.28125 -13.796875 C 4.070312 -14.453125 5.734375 -14.78125 7.265625 -14.78125 C 8.972656 -14.78125 10.242188 -14.363281 11.078125 -13.53125 C 11.921875 -12.707031 12.34375 -11.523438 12.34375 -9.984375 Z M 6.421875 -1.5625 C 7.867188 -1.5625 9.003906 -2.3125 9.828125 -3.8125 L 9.828125 -7.140625 L 7.921875 -7.140625 C 5.253906 -7.140625 3.921875 -6.148438 3.921875 -4.171875 C 3.921875 -3.304688 4.128906 -2.65625 4.546875 -2.21875 C 4.972656 -1.78125 5.597656 -1.5625 6.421875 -1.5625 Z M 6.421875 -1.5625 "/></g></g></g><g fill="#1ccdf4" fill-opacity="1"><g transform="translate(227.670823, 490.784558)"><g/></g></g><g fill="#1ccdf4" fill-opacity="1"><g transform="translate(236.312646, 490.784558)"><g><path d="M 6.53125 -14.78125 C 7.519531 -14.78125 8.40625 -14.644531 9.1875 -14.375 C 9.976562 -14.101562 10.726562 -13.691406 11.4375 -13.140625 L 10.375 -11.546875 C 9.71875 -11.972656 9.085938 -12.285156 8.484375 -12.484375 C 7.890625 -12.679688 7.265625 -12.78125 6.609375 -12.78125 C 5.785156 -12.78125 5.132812 -12.609375 4.65625 -12.265625 C 4.1875 -11.929688 3.953125 -11.472656 3.953125 -10.890625 C 3.953125 -10.304688 4.175781 -9.847656 4.625 -9.515625 C 5.070312 -9.191406 5.878906 -8.875 7.046875 -8.5625 C 8.660156 -8.15625 9.863281 -7.601562 10.65625 -6.90625 C 11.457031 -6.21875 11.859375 -5.269531 11.859375 -4.0625 C 11.859375 -2.632812 11.300781 -1.546875 10.1875 -0.796875 C 9.082031 -0.046875 7.734375 0.328125 6.140625 0.328125 C 3.953125 0.328125 2.132812 -0.300781 0.6875 -1.5625 L 2.03125 -3.09375 C 3.257812 -2.164062 4.613281 -1.703125 6.09375 -1.703125 C 7.039062 -1.703125 7.789062 -1.894531 8.34375 -2.28125 C 8.90625 -2.675781 9.1875 -3.210938 9.1875 -3.890625 C 9.1875 -4.390625 9.085938 -4.789062 8.890625 -5.09375 C 8.691406 -5.394531 8.34375 -5.660156 7.84375 -5.890625 C 7.351562 -6.117188 6.628906 -6.359375 5.671875 -6.609375 C 4.140625 -7.015625 3.03125 -7.554688 2.34375 -8.234375 C 1.65625 -8.910156 1.3125 -9.769531 1.3125 -10.8125 C 1.3125 -11.5625 1.535156 -12.242188 1.984375 -12.859375 C 2.429688 -13.472656 3.050781 -13.945312 3.84375 -14.28125 C 4.644531 -14.613281 5.539062 -14.78125 6.53125 -14.78125 Z M 6.53125 -14.78125 "/></g></g></g><g fill="#1ccdf4" fill-opacity="1"><g transform="translate(250.496203, 490.784558)"><g><path d="M 13.53125 -7.65625 C 13.53125 -7.238281 13.507812 -6.804688 13.46875 -6.359375 L 4.25 -6.359375 C 4.363281 -4.773438 4.765625 -3.609375 5.453125 -2.859375 C 6.148438 -2.109375 7.050781 -1.734375 8.15625 -1.734375 C 8.84375 -1.734375 9.476562 -1.832031 10.0625 -2.03125 C 10.65625 -2.226562 11.269531 -2.546875 11.90625 -2.984375 L 13 -1.484375 C 11.46875 -0.273438 9.785156 0.328125 7.953125 0.328125 C 5.941406 0.328125 4.375 -0.328125 3.25 -1.640625 C 2.125 -2.960938 1.5625 -4.773438 1.5625 -7.078125 C 1.5625 -8.578125 1.800781 -9.90625 2.28125 -11.0625 C 2.769531 -12.226562 3.46875 -13.140625 4.375 -13.796875 C 5.28125 -14.453125 6.347656 -14.78125 7.578125 -14.78125 C 9.492188 -14.78125 10.960938 -14.148438 11.984375 -12.890625 C 13.015625 -11.628906 13.53125 -9.882812 13.53125 -7.65625 Z M 11.03125 -8.390625 C 11.03125 -9.816406 10.742188 -10.90625 10.171875 -11.65625 C 9.609375 -12.40625 8.757812 -12.78125 7.625 -12.78125 C 5.5625 -12.78125 4.4375 -11.265625 4.25 -8.234375 L 11.03125 -8.234375 Z M 11.03125 -8.390625 "/></g></g></g><g fill="#1ccdf4" fill-opacity="1"><g transform="translate(266.819638, 490.784558)"><g/></g></g><g fill="#1ccdf4" fill-opacity="1"><g transform="translate(275.461461, 490.784558)"><g><path d="M 13.53125 -7.65625 C 13.53125 -7.238281 13.507812 -6.804688 13.46875 -6.359375 L 4.25 -6.359375 C 4.363281 -4.773438 4.765625 -3.609375 5.453125 -2.859375 C 6.148438 -2.109375 7.050781 -1.734375 8.15625 -1.734375 C 8.84375 -1.734375 9.476562 -1.832031 10.0625 -2.03125 C 10.65625 -2.226562 11.269531 -2.546875 11.90625 -2.984375 L 13 -1.484375 C 11.46875 -0.273438 9.785156 0.328125 7.953125 0.328125 C 5.941406 0.328125 4.375 -0.328125 3.25 -1.640625 C 2.125 -2.960938 1.5625 -4.773438 1.5625 -7.078125 C 1.5625 -8.578125 1.800781 -9.90625 2.28125 -11.0625 C 2.769531 -12.226562 3.46875 -13.140625 4.375 -13.796875 C 5.28125 -14.453125 6.347656 -14.78125 7.578125 -14.78125 C 9.492188 -14.78125 10.960938 -14.148438 11.984375 -12.890625 C 13.015625 -11.628906 13.53125 -9.882812 13.53125 -7.65625 Z M 11.03125 -8.390625 C 11.03125 -9.816406 10.742188 -10.90625 10.171875 -11.65625 C 9.609375 -12.40625 8.757812 -12.78125 7.625 -12.78125 C 5.5625 -12.78125 4.4375 -11.265625 4.25 -8.234375 L 11.03125 -8.234375 Z M 11.03125 -8.390625 "/></g></g></g><g fill="#1ccdf4" fill-opacity="1"><g transform="translate(291.784896, 490.784558)"><g><path d="M 9.40625 -14.78125 C 10.726562 -14.78125 11.757812 -14.382812 12.5 -13.59375 C 13.238281 -12.8125 13.609375 -11.738281 13.609375 -10.375 L 13.609375 0 L 11.078125 0 L 11.078125 -10.015625 C 11.078125 -11.035156 10.882812 -11.753906 10.5 -12.171875 C 10.125 -12.597656 9.5625 -12.8125 8.8125 -12.8125 C 8.039062 -12.8125 7.363281 -12.59375 6.78125 -12.15625 C 6.195312 -11.71875 5.644531 -11.085938 5.125 -10.265625 L 5.125 0 L 2.609375 0 L 2.609375 -14.453125 L 4.78125 -14.453125 L 5 -12.3125 C 5.507812 -13.082031 6.144531 -13.6875 6.90625 -14.125 C 7.664062 -14.5625 8.5 -14.78125 9.40625 -14.78125 Z M 9.40625 -14.78125 "/></g></g></g><g fill="#1ccdf4" fill-opacity="1"><g transform="translate(309.233143, 490.784558)"><g><path d="M 7.875 -14.78125 C 8.738281 -14.78125 9.523438 -14.65625 10.234375 -14.40625 C 10.941406 -14.164062 11.628906 -13.769531 12.296875 -13.21875 L 11.078125 -11.640625 C 10.566406 -12.003906 10.066406 -12.269531 9.578125 -12.4375 C 9.097656 -12.613281 8.566406 -12.703125 7.984375 -12.703125 C 6.816406 -12.703125 5.90625 -12.234375 5.25 -11.296875 C 4.601562 -10.367188 4.28125 -8.988281 4.28125 -7.15625 C 4.28125 -5.332031 4.597656 -3.984375 5.234375 -3.109375 C 5.878906 -2.242188 6.796875 -1.8125 7.984375 -1.8125 C 8.546875 -1.8125 9.066406 -1.894531 9.546875 -2.0625 C 10.023438 -2.238281 10.554688 -2.519531 11.140625 -2.90625 L 12.296875 -1.265625 C 10.972656 -0.203125 9.5 0.328125 7.875 0.328125 C 5.914062 0.328125 4.375 -0.328125 3.25 -1.640625 C 2.125 -2.960938 1.5625 -4.785156 1.5625 -7.109375 C 1.5625 -8.640625 1.816406 -9.984375 2.328125 -11.140625 C 2.835938 -12.296875 3.5625 -13.191406 4.5 -13.828125 C 5.445312 -14.460938 6.570312 -14.78125 7.875 -14.78125 Z M 7.875 -14.78125 "/></g></g></g><g fill="#1ccdf4" fill-opacity="1"><g transform="translate(323.718485, 490.784558)"><g><path d="M 13.359375 0 L 11.1875 0 L 11 -2.25 C 10.445312 -1.351562 9.816406 -0.695312 9.109375 -0.28125 C 8.398438 0.125 7.53125 0.328125 6.5 0.328125 C 5.238281 0.328125 4.25 -0.0507812 3.53125 -0.8125 C 2.820312 -1.582031 2.46875 -2.675781 2.46875 -4.09375 L 2.46875 -14.453125 L 5 -14.453125 L 5 -4.359375 C 5 -3.367188 5.171875 -2.664062 5.515625 -2.25 C 5.859375 -1.84375 6.425781 -1.640625 7.21875 -1.640625 C 8.625 -1.640625 9.832031 -2.472656 10.84375 -4.140625 L 10.84375 -14.453125 L 13.359375 -14.453125 Z M 13.359375 0 "/></g></g></g><g fill="#1ccdf4" fill-opacity="1"><g transform="translate(341.057021, 490.784558)"><g><path d="M 13.53125 -7.65625 C 13.53125 -7.238281 13.507812 -6.804688 13.46875 -6.359375 L 4.25 -6.359375 C 4.363281 -4.773438 4.765625 -3.609375 5.453125 -2.859375 C 6.148438 -2.109375 7.050781 -1.734375 8.15625 -1.734375 C 8.84375 -1.734375 9.476562 -1.832031 10.0625 -2.03125 C 10.65625 -2.226562 11.269531 -2.546875 11.90625 -2.984375 L 13 -1.484375 C 11.46875 -0.273438 9.785156 0.328125 7.953125 0.328125 C 5.941406 0.328125 4.375 -0.328125 3.25 -1.640625 C 2.125 -2.960938 1.5625 -4.773438 1.5625 -7.078125 C 1.5625 -8.578125 1.800781 -9.90625 2.28125 -11.0625 C 2.769531 -12.226562 3.46875 -13.140625 4.375 -13.796875 C 5.28125 -14.453125 6.347656 -14.78125 7.578125 -14.78125 C 9.492188 -14.78125 10.960938 -14.148438 11.984375 -12.890625 C 13.015625 -11.628906 13.53125 -9.882812 13.53125 -7.65625 Z M 11.03125 -8.390625 C 11.03125 -9.816406 10.742188 -10.90625 10.171875 -11.65625 C 9.609375 -12.40625 8.757812 -12.78125 7.625 -12.78125 C 5.5625 -12.78125 4.4375 -11.265625 4.25 -8.234375 L 11.03125 -8.234375 Z M 11.03125 -8.390625 "/></g></g></g><g fill="#1ccdf4" fill-opacity="1"><g transform="translate(357.380456, 490.784558)"><g><path d="M 9.40625 -14.78125 C 10.726562 -14.78125 11.757812 -14.382812 12.5 -13.59375 C 13.238281 -12.8125 13.609375 -11.738281 13.609375 -10.375 L 13.609375 0 L 11.078125 0 L 11.078125 -10.015625 C 11.078125 -11.035156 10.882812 -11.753906 10.5 -12.171875 C 10.125 -12.597656 9.5625 -12.8125 8.8125 -12.8125 C 8.039062 -12.8125 7.363281 -12.59375 6.78125 -12.15625 C 6.195312 -11.71875 5.644531 -11.085938 5.125 -10.265625 L 5.125 0 L 2.609375 0 L 2.609375 -14.453125 L 4.78125 -14.453125 L 5 -12.3125 C 5.507812 -13.082031 6.144531 -13.6875 6.90625 -14.125 C 7.664062 -14.5625 8.5 -14.78125 9.40625 -14.78125 Z M 9.40625 -14.78125 "/></g></g></g><g fill="#1ccdf4" fill-opacity="1"><g transform="translate(374.828703, 490.784558)"><g><path d="M 9.90625 -0.65625 C 8.957031 0 7.878906 0.328125 6.671875 0.328125 C 5.441406 0.328125 4.484375 -0.0195312 3.796875 -0.71875 C 3.109375 -1.425781 2.765625 -2.445312 2.765625 -3.78125 L 2.765625 -12.515625 L 0.25 -12.515625 L 0.25 -14.453125 L 2.765625 -14.453125 L 2.765625 -17.71875 L 5.296875 -18.03125 L 5.296875 -14.453125 L 8.71875 -14.453125 L 8.453125 -12.515625 L 5.296875 -12.515625 L 5.296875 -3.890625 C 5.296875 -3.140625 5.425781 -2.59375 5.6875 -2.25 C 5.957031 -1.914062 6.40625 -1.75 7.03125 -1.75 C 7.59375 -1.75 8.226562 -1.941406 8.9375 -2.328125 Z M 9.90625 -0.65625 "/></g></g></g><g fill="#1ccdf4" fill-opacity="1"><g transform="translate(386.104245, 490.784558)"><g><path d="M 8.890625 -14.78125 C 9.398438 -14.78125 9.875 -14.726562 10.3125 -14.625 L 9.84375 -12.15625 C 9.40625 -12.257812 8.988281 -12.3125 8.59375 -12.3125 C 7.695312 -12.3125 6.972656 -11.984375 6.421875 -11.328125 C 5.867188 -10.671875 5.4375 -9.648438 5.125 -8.265625 L 5.125 0 L 2.609375 0 L 2.609375 -14.453125 L 4.78125 -14.453125 L 5.015625 -11.53125 C 5.398438 -12.601562 5.921875 -13.410156 6.578125 -13.953125 C 7.242188 -14.503906 8.015625 -14.78125 8.890625 -14.78125 Z M 8.890625 -14.78125 "/></g></g></g><g fill="#1ccdf4" fill-opacity="1"><g transform="translate(398.065648, 490.784558)"><g><path d="M 12.34375 -3.375 C 12.34375 -2.789062 12.441406 -2.351562 12.640625 -2.0625 C 12.847656 -1.78125 13.148438 -1.566406 13.546875 -1.421875 L 12.984375 0.328125 C 12.234375 0.234375 11.628906 0.0234375 11.171875 -0.296875 C 10.710938 -0.628906 10.375 -1.144531 10.15625 -1.84375 C 9.1875 -0.394531 7.75 0.328125 5.84375 0.328125 C 4.414062 0.328125 3.289062 -0.0703125 2.46875 -0.875 C 1.644531 -1.675781 1.234375 -2.726562 1.234375 -4.03125 C 1.234375 -5.570312 1.785156 -6.753906 2.890625 -7.578125 C 3.992188 -8.398438 5.5625 -8.8125 7.59375 -8.8125 L 9.828125 -8.8125 L 9.828125 -9.875 C 9.828125 -10.894531 9.578125 -11.625 9.078125 -12.0625 C 8.585938 -12.507812 7.828125 -12.734375 6.796875 -12.734375 C 5.742188 -12.734375 4.445312 -12.476562 2.90625 -11.96875 L 2.28125 -13.796875 C 4.070312 -14.453125 5.734375 -14.78125 7.265625 -14.78125 C 8.972656 -14.78125 10.242188 -14.363281 11.078125 -13.53125 C 11.921875 -12.707031 12.34375 -11.523438 12.34375 -9.984375 Z M 6.421875 -1.5625 C 7.867188 -1.5625 9.003906 -2.3125 9.828125 -3.8125 L 9.828125 -7.140625 L 7.921875 -7.140625 C 5.253906 -7.140625 3.921875 -6.148438 3.921875 -4.171875 C 3.921875 -3.304688 4.128906 -2.65625 4.546875 -2.21875 C 4.972656 -1.78125 5.597656 -1.5625 6.421875 -1.5625 Z M 6.421875 -1.5625 "/></g></g></g><g fill="#1ccdf4" fill-opacity="1"><g transform="translate(414.361682, 490.784558)"><g/></g></g><g fill="#1ccdf4" fill-opacity="1"><g transform="translate(423.003522, 490.784558)"><g><path d="M 13.53125 -7.65625 C 13.53125 -7.238281 13.507812 -6.804688 13.46875 -6.359375 L 4.25 -6.359375 C 4.363281 -4.773438 4.765625 -3.609375 5.453125 -2.859375 C 6.148438 -2.109375 7.050781 -1.734375 8.15625 -1.734375 C 8.84375 -1.734375 9.476562 -1.832031 10.0625 -2.03125 C 10.65625 -2.226562 11.269531 -2.546875 11.90625 -2.984375 L 13 -1.484375 C 11.46875 -0.273438 9.785156 0.328125 7.953125 0.328125 C 5.941406 0.328125 4.375 -0.328125 3.25 -1.640625 C 2.125 -2.960938 1.5625 -4.773438 1.5625 -7.078125 C 1.5625 -8.578125 1.800781 -9.90625 2.28125 -11.0625 C 2.769531 -12.226562 3.46875 -13.140625 4.375 -13.796875 C 5.28125 -14.453125 6.347656 -14.78125 7.578125 -14.78125 C 9.492188 -14.78125 10.960938 -14.148438 11.984375 -12.890625 C 13.015625 -11.628906 13.53125 -9.882812 13.53125 -7.65625 Z M 11.03125 -8.390625 C 11.03125 -9.816406 10.742188 -10.90625 10.171875 -11.65625 C 9.609375 -12.40625 8.757812 -12.78125 7.625 -12.78125 C 5.5625 -12.78125 4.4375 -11.265625 4.25 -8.234375 L 11.03125 -8.234375 Z M 11.03125 -8.390625 "/></g></g></g><g fill="#1ccdf4" fill-opacity="1"><g transform="translate(439.326975, 490.784558)"><g><path d="M 9.40625 -14.78125 C 10.726562 -14.78125 11.757812 -14.382812 12.5 -13.59375 C 13.238281 -12.8125 13.609375 -11.738281 13.609375 -10.375 L 13.609375 0 L 11.078125 0 L 11.078125 -10.015625 C 11.078125 -11.035156 10.882812 -11.753906 10.5 -12.171875 C 10.125 -12.597656 9.5625 -12.8125 8.8125 -12.8125 C 8.039062 -12.8125 7.363281 -12.59375 6.78125 -12.15625 C 6.195312 -11.71875 5.644531 -11.085938 5.125 -10.265625 L 5.125 0 L 2.609375 0 L 2.609375 -14.453125 L 4.78125 -14.453125 L 5 -12.3125 C 5.507812 -13.082031 6.144531 -13.6875 6.90625 -14.125 C 7.664062 -14.5625 8.5 -14.78125 9.40625 -14.78125 Z M 9.40625 -14.78125 "/></g></g></g><g fill="#1ccdf4" fill-opacity="1"><g transform="translate(456.77524, 490.784558)"><g/></g></g><g fill="#1ccdf4" fill-opacity="1"><g transform="translate(465.41708, 490.784558)"><g><path d="M 17.125 -14.78125 C 18.3125 -14.78125 19.257812 -14.382812 19.96875 -13.59375 C 20.6875 -12.800781 21.046875 -11.726562 21.046875 -10.375 L 21.046875 0 L 18.515625 0 L 18.515625 -10.015625 C 18.515625 -11.878906 17.835938 -12.8125 16.484375 -12.8125 C 15.773438 -12.8125 15.171875 -12.601562 14.671875 -12.1875 C 14.179688 -11.78125 13.65625 -11.140625 13.09375 -10.265625 L 13.09375 0 L 10.5625 0 L 10.5625 -10.015625 C 10.5625 -11.878906 9.882812 -12.8125 8.53125 -12.8125 C 7.800781 -12.8125 7.1875 -12.597656 6.6875 -12.171875 C 6.195312 -11.753906 5.675781 -11.117188 5.125 -10.265625 L 5.125 0 L 2.609375 0 L 2.609375 -14.453125 L 4.78125 -14.453125 L 5 -12.34375 C 6.070312 -13.96875 7.460938 -14.78125 9.171875 -14.78125 C 10.066406 -14.78125 10.828125 -14.550781 11.453125 -14.09375 C 12.085938 -13.644531 12.539062 -13.007812 12.8125 -12.1875 C 13.375 -13.019531 14 -13.660156 14.6875 -14.109375 C 15.375 -14.554688 16.1875 -14.78125 17.125 -14.78125 Z M 17.125 -14.78125 "/></g></g></g><g fill="#1ccdf4" fill-opacity="1"><g transform="translate(490.30008, 490.784558)"><g><path d="M 12.34375 -3.375 C 12.34375 -2.789062 12.441406 -2.351562 12.640625 -2.0625 C 12.847656 -1.78125 13.148438 -1.566406 13.546875 -1.421875 L 12.984375 0.328125 C 12.234375 0.234375 11.628906 0.0234375 11.171875 -0.296875 C 10.710938 -0.628906 10.375 -1.144531 10.15625 -1.84375 C 9.1875 -0.394531 7.75 0.328125 5.84375 0.328125 C 4.414062 0.328125 3.289062 -0.0703125 2.46875 -0.875 C 1.644531 -1.675781 1.234375 -2.726562 1.234375 -4.03125 C 1.234375 -5.570312 1.785156 -6.753906 2.890625 -7.578125 C 3.992188 -8.398438 5.5625 -8.8125 7.59375 -8.8125 L 9.828125 -8.8125 L 9.828125 -9.875 C 9.828125 -10.894531 9.578125 -11.625 9.078125 -12.0625 C 8.585938 -12.507812 7.828125 -12.734375 6.796875 -12.734375 C 5.742188 -12.734375 4.445312 -12.476562 2.90625 -11.96875 L 2.28125 -13.796875 C 4.070312 -14.453125 5.734375 -14.78125 7.265625 -14.78125 C 8.972656 -14.78125 10.242188 -14.363281 11.078125 -13.53125 C 11.921875 -12.707031 12.34375 -11.523438 12.34375 -9.984375 Z M 6.421875 -1.5625 C 7.867188 -1.5625 9.003906 -2.3125 9.828125 -3.8125 L 9.828125 -7.140625 L 7.921875 -7.140625 C 5.253906 -7.140625 3.921875 -6.148438 3.921875 -4.171875 C 3.921875 -3.304688 4.128906 -2.65625 4.546875 -2.21875 C 4.972656 -1.78125 5.597656 -1.5625 6.421875 -1.5625 Z M 6.421875 -1.5625 "/></g></g></g><g fill="#1ccdf4" fill-opacity="1"><g transform="translate(506.596113, 490.784558)"><g><path d="M 9.40625 -14.78125 C 10.726562 -14.78125 11.757812 -14.382812 12.5 -13.59375 C 13.238281 -12.8125 13.609375 -11.738281 13.609375 -10.375 L 13.609375 0 L 11.078125 0 L 11.078125 -10.015625 C 11.078125 -11.035156 10.882812 -11.753906 10.5 -12.171875 C 10.125 -12.597656 9.5625 -12.8125 8.8125 -12.8125 C 8.039062 -12.8125 7.363281 -12.59375 6.78125 -12.15625 C 6.195312 -11.71875 5.644531 -11.085938 5.125 -10.265625 L 5.125 0 L 2.609375 0 L 2.609375 -14.453125 L 4.78125 -14.453125 L 5 -12.3125 C 5.507812 -13.082031 6.144531 -13.6875 6.90625 -14.125 C 7.664062 -14.5625 8.5 -14.78125 9.40625 -14.78125 Z M 9.40625 -14.78125 "/></g></g></g><g fill="#1ccdf4" fill-opacity="1"><g transform="translate(524.044378, 490.784558)"><g><path d="M 9.90625 -0.65625 C 8.957031 0 7.878906 0.328125 6.671875 0.328125 C 5.441406 0.328125 4.484375 -0.0195312 3.796875 -0.71875 C 3.109375 -1.425781 2.765625 -2.445312 2.765625 -3.78125 L 2.765625 -12.515625 L 0.25 -12.515625 L 0.25 -14.453125 L 2.765625 -14.453125 L 2.765625 -17.71875 L 5.296875 -18.03125 L 5.296875 -14.453125 L 8.71875 -14.453125 L 8.453125 -12.515625 L 5.296875 -12.515625 L 5.296875 -3.890625 C 5.296875 -3.140625 5.425781 -2.59375 5.6875 -2.25 C 5.957031 -1.914062 6.40625 -1.75 7.03125 -1.75 C 7.59375 -1.75 8.226562 -1.941406 8.9375 -2.328125 Z M 9.90625 -0.65625 "/></g></g></g><g fill="#1ccdf4" fill-opacity="1"><g transform="translate(535.31992, 490.784558)"><g><path d="M 13.53125 -7.65625 C 13.53125 -7.238281 13.507812 -6.804688 13.46875 -6.359375 L 4.25 -6.359375 C 4.363281 -4.773438 4.765625 -3.609375 5.453125 -2.859375 C 6.148438 -2.109375 7.050781 -1.734375 8.15625 -1.734375 C 8.84375 -1.734375 9.476562 -1.832031 10.0625 -2.03125 C 10.65625 -2.226562 11.269531 -2.546875 11.90625 -2.984375 L 13 -1.484375 C 11.46875 -0.273438 9.785156 0.328125 7.953125 0.328125 C 5.941406 0.328125 4.375 -0.328125 3.25 -1.640625 C 2.125 -2.960938 1.5625 -4.773438 1.5625 -7.078125 C 1.5625 -8.578125 1.800781 -9.90625 2.28125 -11.0625 C 2.769531 -12.226562 3.46875 -13.140625 4.375 -13.796875 C 5.28125 -14.453125 6.347656 -14.78125 7.578125 -14.78125 C 9.492188 -14.78125 10.960938 -14.148438 11.984375 -12.890625 C 13.015625 -11.628906 13.53125 -9.882812 13.53125 -7.65625 Z M 11.03125 -8.390625 C 11.03125 -9.816406 10.742188 -10.90625 10.171875 -11.65625 C 9.609375 -12.40625 8.757812 -12.78125 7.625 -12.78125 C 5.5625 -12.78125 4.4375 -11.265625 4.25 -8.234375 L 11.03125 -8.234375 Z M 11.03125 -8.390625 "/></g></g></g><g fill="#1ccdf4" fill-opacity="1"><g transform="translate(551.643373, 490.784558)"><g><path d="M 9.40625 -14.78125 C 10.726562 -14.78125 11.757812 -14.382812 12.5 -13.59375 C 13.238281 -12.8125 13.609375 -11.738281 13.609375 -10.375 L 13.609375 0 L 11.078125 0 L 11.078125 -10.015625 C 11.078125 -11.035156 10.882812 -11.753906 10.5 -12.171875 C 10.125 -12.597656 9.5625 -12.8125 8.8125 -12.8125 C 8.039062 -12.8125 7.363281 -12.59375 6.78125 -12.15625 C 6.195312 -11.71875 5.644531 -11.085938 5.125 -10.265625 L 5.125 0 L 2.609375 0 L 2.609375 -14.453125 L 4.78125 -14.453125 L 5 -12.3125 C 5.507812 -13.082031 6.144531 -13.6875 6.90625 -14.125 C 7.664062 -14.5625 8.5 -14.78125 9.40625 -14.78125 Z M 9.40625 -14.78125 "/></g></g></g><g fill="#1ccdf4" fill-opacity="1"><g transform="translate(569.091638, 490.784558)"><g><path d="M 5.125 -14.453125 L 5.125 0 L 2.609375 0 L 2.609375 -14.453125 Z M 3.84375 -21.40625 C 4.375 -21.40625 4.800781 -21.238281 5.125 -20.90625 C 5.457031 -20.570312 5.625 -20.160156 5.625 -19.671875 C 5.625 -19.179688 5.457031 -18.773438 5.125 -18.453125 C 4.800781 -18.128906 4.375 -17.96875 3.84375 -17.96875 C 3.332031 -17.96875 2.910156 -18.128906 2.578125 -18.453125 C 2.253906 -18.773438 2.09375 -19.179688 2.09375 -19.671875 C 2.09375 -20.160156 2.253906 -20.570312 2.578125 -20.90625 C 2.910156 -21.238281 3.332031 -21.40625 3.84375 -21.40625 Z M 3.84375 -21.40625 "/></g></g></g><g fill="#1ccdf4" fill-opacity="1"><g transform="translate(578.199847, 490.784558)"><g><path d="M 17.125 -14.78125 C 18.3125 -14.78125 19.257812 -14.382812 19.96875 -13.59375 C 20.6875 -12.800781 21.046875 -11.726562 21.046875 -10.375 L 21.046875 0 L 18.515625 0 L 18.515625 -10.015625 C 18.515625 -11.878906 17.835938 -12.8125 16.484375 -12.8125 C 15.773438 -12.8125 15.171875 -12.601562 14.671875 -12.1875 C 14.179688 -11.78125 13.65625 -11.140625 13.09375 -10.265625 L 13.09375 0 L 10.5625 0 L 10.5625 -10.015625 C 10.5625 -11.878906 9.882812 -12.8125 8.53125 -12.8125 C 7.800781 -12.8125 7.1875 -12.597656 6.6875 -12.171875 C 6.195312 -11.753906 5.675781 -11.117188 5.125 -10.265625 L 5.125 0 L 2.609375 0 L 2.609375 -14.453125 L 4.78125 -14.453125 L 5 -12.34375 C 6.070312 -13.96875 7.460938 -14.78125 9.171875 -14.78125 C 10.066406 -14.78125 10.828125 -14.550781 11.453125 -14.09375 C 12.085938 -13.644531 12.539062 -13.007812 12.8125 -12.1875 C 13.375 -13.019531 14 -13.660156 14.6875 -14.109375 C 15.375 -14.554688 16.1875 -14.78125 17.125 -14.78125 Z M 17.125 -14.78125 "/></g></g></g><g fill="#1ccdf4" fill-opacity="1"><g transform="translate(603.082847, 490.784558)"><g><path d="M 5.125 -14.453125 L 5.125 0 L 2.609375 0 L 2.609375 -14.453125 Z M 3.84375 -21.40625 C 4.375 -21.40625 4.800781 -21.238281 5.125 -20.90625 C 5.457031 -20.570312 5.625 -20.160156 5.625 -19.671875 C 5.625 -19.179688 5.457031 -18.773438 5.125 -18.453125 C 4.800781 -18.128906 4.375 -17.96875 3.84375 -17.96875 C 3.332031 -17.96875 2.910156 -18.128906 2.578125 -18.453125 C 2.253906 -18.773438 2.09375 -19.179688 2.09375 -19.671875 C 2.09375 -20.160156 2.253906 -20.570312 2.578125 -20.90625 C 2.910156 -21.238281 3.332031 -21.40625 3.84375 -21.40625 Z M 3.84375 -21.40625 "/></g></g></g><g fill="#1ccdf4" fill-opacity="1"><g transform="translate(612.191057, 490.784558)"><g><path d="M 13.53125 -7.65625 C 13.53125 -7.238281 13.507812 -6.804688 13.46875 -6.359375 L 4.25 -6.359375 C 4.363281 -4.773438 4.765625 -3.609375 5.453125 -2.859375 C 6.148438 -2.109375 7.050781 -1.734375 8.15625 -1.734375 C 8.84375 -1.734375 9.476562 -1.832031 10.0625 -2.03125 C 10.65625 -2.226562 11.269531 -2.546875 11.90625 -2.984375 L 13 -1.484375 C 11.46875 -0.273438 9.785156 0.328125 7.953125 0.328125 C 5.941406 0.328125 4.375 -0.328125 3.25 -1.640625 C 2.125 -2.960938 1.5625 -4.773438 1.5625 -7.078125 C 1.5625 -8.578125 1.800781 -9.90625 2.28125 -11.0625 C 2.769531 -12.226562 3.46875 -13.140625 4.375 -13.796875 C 5.28125 -14.453125 6.347656 -14.78125 7.578125 -14.78125 C 9.492188 -14.78125 10.960938 -14.148438 11.984375 -12.890625 C 13.015625 -11.628906 13.53125 -9.882812 13.53125 -7.65625 Z M 11.03125 -8.390625 C 11.03125 -9.816406 10.742188 -10.90625 10.171875 -11.65625 C 9.609375 -12.40625 8.757812 -12.78125 7.625 -12.78125 C 5.5625 -12.78125 4.4375 -11.265625 4.25 -8.234375 L 11.03125 -8.234375 Z M 11.03125 -8.390625 "/></g></g></g><g fill="#1ccdf4" fill-opacity="1"><g transform="translate(628.514509, 490.784558)"><g><path d="M 9.40625 -14.78125 C 10.726562 -14.78125 11.757812 -14.382812 12.5 -13.59375 C 13.238281 -12.8125 13.609375 -11.738281 13.609375 -10.375 L 13.609375 0 L 11.078125 0 L 11.078125 -10.015625 C 11.078125 -11.035156 10.882812 -11.753906 10.5 -12.171875 C 10.125 -12.597656 9.5625 -12.8125 8.8125 -12.8125 C 8.039062 -12.8125 7.363281 -12.59375 6.78125 -12.15625 C 6.195312 -11.71875 5.644531 -11.085938 5.125 -10.265625 L 5.125 0 L 2.609375 0 L 2.609375 -14.453125 L 4.78125 -14.453125 L 5 -12.3125 C 5.507812 -13.082031 6.144531 -13.6875 6.90625 -14.125 C 7.664062 -14.5625 8.5 -14.78125 9.40625 -14.78125 Z M 9.40625 -14.78125 "/></g></g></g><g fill="#1ccdf4" fill-opacity="1"><g transform="translate(645.962774, 490.784558)"><g><path d="M 9.90625 -0.65625 C 8.957031 0 7.878906 0.328125 6.671875 0.328125 C 5.441406 0.328125 4.484375 -0.0195312 3.796875 -0.71875 C 3.109375 -1.425781 2.765625 -2.445312 2.765625 -3.78125 L 2.765625 -12.515625 L 0.25 -12.515625 L 0.25 -14.453125 L 2.765625 -14.453125 L 2.765625 -17.71875 L 5.296875 -18.03125 L 5.296875 -14.453125 L 8.71875 -14.453125 L 8.453125 -12.515625 L 5.296875 -12.515625 L 5.296875 -3.890625 C 5.296875 -3.140625 5.425781 -2.59375 5.6875 -2.25 C 5.957031 -1.914062 6.40625 -1.75 7.03125 -1.75 C 7.59375 -1.75 8.226562 -1.941406 8.9375 -2.328125 Z M 9.90625 -0.65625 "/></g></g></g><g fill="#1ccdf4" fill-opacity="1"><g transform="translate(657.238316, 490.784558)"><g><path d="M 8.046875 -14.78125 C 10.066406 -14.78125 11.640625 -14.101562 12.765625 -12.75 C 13.890625 -11.40625 14.453125 -9.570312 14.453125 -7.25 C 14.453125 -5.75 14.195312 -4.425781 13.6875 -3.28125 C 13.175781 -2.132812 12.4375 -1.242188 11.46875 -0.609375 C 10.5 0.015625 9.347656 0.328125 8.015625 0.328125 C 5.984375 0.328125 4.398438 -0.347656 3.265625 -1.703125 C 2.128906 -3.054688 1.5625 -4.894531 1.5625 -7.21875 C 1.5625 -8.71875 1.816406 -10.035156 2.328125 -11.171875 C 2.835938 -12.316406 3.578125 -13.203125 4.546875 -13.828125 C 5.523438 -14.460938 6.691406 -14.78125 8.046875 -14.78125 Z M 8.046875 -12.765625 C 5.535156 -12.765625 4.28125 -10.914062 4.28125 -7.21875 C 4.28125 -3.539062 5.523438 -1.703125 8.015625 -1.703125 C 10.503906 -1.703125 11.75 -3.550781 11.75 -7.25 C 11.75 -10.925781 10.515625 -12.765625 8.046875 -12.765625 Z M 8.046875 -12.765625 "/></g></g></g><g fill="#1ccdf4" fill-opacity="1"><g transform="translate(674.631743, 490.784558)"><g><path d="M 3.265625 -3.484375 C 3.816406 -3.484375 4.273438 -3.300781 4.640625 -2.9375 C 5.003906 -2.570312 5.1875 -2.125 5.1875 -1.59375 C 5.1875 -1.0625 5.003906 -0.609375 4.640625 -0.234375 C 4.273438 0.140625 3.816406 0.328125 3.265625 0.328125 C 2.734375 0.328125 2.285156 0.140625 1.921875 -0.234375 C 1.554688 -0.609375 1.375 -1.0625 1.375 -1.59375 C 1.375 -2.125 1.554688 -2.570312 1.921875 -2.9375 C 2.285156 -3.300781 2.734375 -3.484375 3.265625 -3.484375 Z M 3.265625 -3.484375 "/></g></g></g><g fill="#1ccdf4" fill-opacity="1"><g transform="translate(231.766487, 365.123441)"><g><path d="M 7.171875 -30.40625 C 8.679688 -30.40625 9.960938 -29.875 11.015625 -28.8125 C 12.078125 -27.757812 12.609375 -26.5 12.609375 -25.03125 C 12.609375 -23.550781 12.078125 -22.285156 11.015625 -21.234375 C 9.960938 -20.179688 8.679688 -19.65625 7.171875 -19.65625 C 5.691406 -19.65625 4.425781 -20.179688 3.375 -21.234375 C 2.320312 -22.285156 1.796875 -23.550781 1.796875 -25.03125 C 1.796875 -26.5 2.320312 -27.757812 3.375 -28.8125 C 4.425781 -29.875 5.691406 -30.40625 7.171875 -30.40625 Z M 10.984375 -14.03125 L 12.25 12.546875 L 2.203125 12.546875 L 3.40625 -14.03125 Z M 10.984375 -14.03125 "/></g></g></g><g fill="#1ccdf4" fill-opacity="1"><g transform="translate(246.693801, 365.123441)"><g><path d="M 29.265625 -41.390625 L 28.25 -34.40625 L 13.671875 -34.40625 L 13.671875 -24.484375 L 26.40625 -24.484375 L 26.40625 -17.625 L 13.671875 -17.625 L 13.671875 -7.046875 L 29.265625 -7.046875 L 29.265625 0 L 3.875 0 L 3.875 -41.390625 Z M 29.265625 -41.390625 "/></g></g></g><g fill="#1ccdf4" fill-opacity="1"><g transform="translate(278.697245, 365.123441)"><g><path d="M 20.90625 -32.609375 C 22.0625 -32.609375 23.117188 -32.472656 24.078125 -32.203125 L 22.578125 -23.0625 C 21.378906 -23.332031 20.425781 -23.46875 19.71875 -23.46875 C 17.84375 -23.46875 16.414062 -22.820312 15.4375 -21.53125 C 14.46875 -20.238281 13.703125 -18.296875 13.140625 -15.703125 L 13.140625 0 L 3.703125 0 L 3.703125 -31.71875 L 11.953125 -31.71875 L 12.71875 -25.5625 C 13.4375 -27.757812 14.519531 -29.484375 15.96875 -30.734375 C 17.425781 -31.984375 19.070312 -32.609375 20.90625 -32.609375 Z M 20.90625 -32.609375 "/></g></g></g><g fill="#1ccdf4" fill-opacity="1"><g transform="translate(303.237368, 365.123441)"><g><path d="M 20.90625 -32.609375 C 22.0625 -32.609375 23.117188 -32.472656 24.078125 -32.203125 L 22.578125 -23.0625 C 21.378906 -23.332031 20.425781 -23.46875 19.71875 -23.46875 C 17.84375 -23.46875 16.414062 -22.820312 15.4375 -21.53125 C 14.46875 -20.238281 13.703125 -18.296875 13.140625 -15.703125 L 13.140625 0 L 3.703125 0 L 3.703125 -31.71875 L 11.953125 -31.71875 L 12.71875 -25.5625 C 13.4375 -27.757812 14.519531 -29.484375 15.96875 -30.734375 C 17.425781 -31.984375 19.070312 -32.609375 20.90625 -32.609375 Z M 20.90625 -32.609375 "/></g></g></g><g fill="#1ccdf4" fill-opacity="1"><g transform="translate(327.777491, 365.123441)"><g><path d="M 17.4375 -32.734375 C 22.300781 -32.734375 26.101562 -31.25 28.84375 -28.28125 C 31.59375 -25.3125 32.96875 -21.160156 32.96875 -15.828125 C 32.96875 -12.441406 32.335938 -9.484375 31.078125 -6.953125 C 29.828125 -4.429688 28.035156 -2.472656 25.703125 -1.078125 C 23.378906 0.316406 20.625 1.015625 17.4375 1.015625 C 12.625 1.015625 8.832031 -0.46875 6.0625 -3.4375 C 3.289062 -6.40625 1.90625 -10.554688 1.90625 -15.890625 C 1.90625 -19.273438 2.53125 -22.226562 3.78125 -24.75 C 5.039062 -27.28125 6.832031 -29.242188 9.15625 -30.640625 C 11.488281 -32.035156 14.25 -32.734375 17.4375 -32.734375 Z M 17.4375 -25.8125 C 15.53125 -25.8125 14.097656 -25.003906 13.140625 -23.390625 C 12.179688 -21.773438 11.703125 -19.273438 11.703125 -15.890625 C 11.703125 -12.421875 12.171875 -9.890625 13.109375 -8.296875 C 14.046875 -6.703125 15.488281 -5.90625 17.4375 -5.90625 C 19.351562 -5.90625 20.785156 -6.710938 21.734375 -8.328125 C 22.691406 -9.941406 23.171875 -12.441406 23.171875 -15.828125 C 23.171875 -19.296875 22.703125 -21.828125 21.765625 -23.421875 C 20.835938 -25.015625 19.394531 -25.8125 17.4375 -25.8125 Z M 17.4375 -25.8125 "/></g></g></g><g fill="#1ccdf4" fill-opacity="1"><g transform="translate(363.243974, 365.123441)"><g><path d="M 20.90625 -32.609375 C 22.0625 -32.609375 23.117188 -32.472656 24.078125 -32.203125 L 22.578125 -23.0625 C 21.378906 -23.332031 20.425781 -23.46875 19.71875 -23.46875 C 17.84375 -23.46875 16.414062 -22.820312 15.4375 -21.53125 C 14.46875 -20.238281 13.703125 -18.296875 13.140625 -15.703125 L 13.140625 0 L 3.703125 0 L 3.703125 -31.71875 L 11.953125 -31.71875 L 12.71875 -25.5625 C 13.4375 -27.757812 14.519531 -29.484375 15.96875 -30.734375 C 17.425781 -31.984375 19.070312 -32.609375 20.90625 -32.609375 Z M 20.90625 -32.609375 "/></g></g></g><g fill="#1ccdf4" fill-opacity="1"><g transform="translate(387.784097, 365.123441)"><g/></g></g><g fill="#1ccdf4" fill-opacity="1"><g transform="translate(402.532255, 365.123441)"><g><path d="M 32.5 -15.765625 L 32.5 -8.71875 L 27.953125 -8.71875 L 27.953125 0 L 18.75 0 L 18.703125 -8.71875 L 1.671875 -8.71875 L 1.671875 -15 L 13.140625 -41.390625 L 21.140625 -38.40625 L 11.40625 -15.765625 L 18.8125 -15.765625 L 19.828125 -25.328125 L 27.953125 -25.328125 L 27.953125 -15.765625 Z M 32.5 -15.765625 "/></g></g></g><g fill="#1ccdf4" fill-opacity="1"><g transform="translate(436.864285, 365.123441)"><g><path d="M 17.5 -41.21875 C 22.4375 -41.21875 26.207031 -39.40625 28.8125 -35.78125 C 31.425781 -32.15625 32.734375 -26.9375 32.734375 -20.125 C 32.734375 -13.351562 31.425781 -8.132812 28.8125 -4.46875 C 26.207031 -0.8125 22.4375 1.015625 17.5 1.015625 C 12.5625 1.015625 8.785156 -0.8125 6.171875 -4.46875 C 3.566406 -8.132812 2.265625 -13.351562 2.265625 -20.125 C 2.265625 -26.9375 3.566406 -32.15625 6.171875 -35.78125 C 8.785156 -39.40625 12.5625 -41.21875 17.5 -41.21875 Z M 17.5 -34.234375 C 16.144531 -34.234375 15.066406 -33.789062 14.265625 -32.90625 C 13.472656 -32.03125 12.890625 -30.578125 12.515625 -28.546875 C 12.140625 -26.515625 11.953125 -23.707031 11.953125 -20.125 C 11.953125 -16.539062 12.140625 -13.722656 12.515625 -11.671875 C 12.890625 -9.628906 13.472656 -8.164062 14.265625 -7.28125 C 15.066406 -6.40625 16.144531 -5.96875 17.5 -5.96875 C 18.851562 -5.96875 19.925781 -6.394531 20.71875 -7.25 C 21.519531 -8.113281 22.109375 -9.566406 22.484375 -11.609375 C 22.867188 -13.660156 23.0625 -16.5 23.0625 -20.125 C 23.0625 -23.75 22.867188 -26.585938 22.484375 -28.640625 C 22.109375 -30.691406 21.519531 -32.132812 20.71875 -32.96875 C 19.925781 -33.8125 18.851562 -34.234375 17.5 -34.234375 Z M 17.5 -34.234375 "/></g></g></g><g fill="#1ccdf4" fill-opacity="1"><g transform="translate(472.390464, 365.123441)"><g><path d="M 32.5 -15.765625 L 32.5 -8.71875 L 27.953125 -8.71875 L 27.953125 0 L 18.75 0 L 18.703125 -8.71875 L 1.671875 -8.71875 L 1.671875 -15 L 13.140625 -41.390625 L 21.140625 -38.40625 L 11.40625 -15.765625 L 18.8125 -15.765625 L 19.828125 -25.328125 L 27.953125 -25.328125 L 27.953125 -15.765625 Z M 32.5 -15.765625 "/></g></g></g><g fill="#1ccdf4" fill-opacity="1"><g transform="translate(506.722509, 365.123441)"><g><path d="M 12.1875 -41.390625 L 10.984375 -15.234375 L 3.34375 -15.234375 L 2.15625 -41.390625 Z M 7.171875 -9.796875 C 8.679688 -9.796875 9.960938 -9.265625 11.015625 -8.203125 C 12.078125 -7.148438 12.609375 -5.890625 12.609375 -4.421875 C 12.609375 -2.910156 12.078125 -1.625 11.015625 -0.5625 C 9.960938 0.488281 8.679688 1.015625 7.171875 1.015625 C 5.691406 1.015625 4.425781 0.488281 3.375 -0.5625 C 2.320312 -1.625 1.796875 -2.910156 1.796875 -4.421875 C 1.796875 -5.890625 2.320312 -7.148438 3.375 -8.203125 C 4.425781 -9.265625 5.691406 -9.796875 7.171875 -9.796875 Z M 7.171875 -9.796875 "/></g></g></g><g clip-path="url(#id5)"><path fill="#1ccdf4" d="M 78.632812 411.546875 L 670.660156 411.546875 L 670.660156 416.046875 L 78.632812 416.046875 L 78.632812 411.546875 " fill-opacity="1" fill-rule="nonzero"/></g><path fill="#1ccdf4" d="M 538.136719 691.921875 L 513.730469 683.789062 L 521.867188 708.195312 L 526.902344 703.160156 L 532.703125 708.964844 L 538.90625 702.757812 L 533.101562 696.957031 L 538.136719 691.921875 " fill-opacity="1" fill-rule="nonzero"/><path fill="#37424f" d="M 538.136719 691.921875 L 538.203125 691.730469 L 513.792969 683.597656 C 513.722656 683.574219 513.644531 683.589844 513.589844 683.644531 C 513.535156 683.699219 513.515625 683.777344 513.539062 683.851562 L 521.675781 708.257812 C 521.695312 708.324219 521.753906 708.375 521.820312 708.390625 C 521.886719 708.40625 521.957031 708.386719 522.007812 708.335938 L 526.902344 703.445312 L 532.558594 709.105469 C 532.597656 709.140625 532.648438 709.164062 532.703125 709.164062 C 532.753906 709.164062 532.808594 709.140625 532.84375 709.105469 L 539.046875 702.902344 C 539.085938 702.863281 539.109375 702.8125 539.109375 702.757812 C 539.109375 702.703125 539.085938 702.652344 539.046875 702.617188 L 533.386719 696.957031 L 538.28125 692.0625 C 538.328125 692.015625 538.347656 691.945312 538.332031 691.875 C 538.316406 691.808594 538.269531 691.753906 538.203125 691.730469 L 538.136719 691.921875 L 537.996094 691.78125 L 532.960938 696.816406 C 532.921875 696.851562 532.902344 696.902344 532.902344 696.957031 C 532.902344 697.011719 532.921875 697.0625 532.960938 697.097656 L 538.621094 702.757812 L 532.703125 708.675781 L 527.042969 703.015625 C 527.003906 702.980469 526.953125 702.957031 526.902344 702.957031 C 526.847656 702.957031 526.796875 702.980469 526.757812 703.015625 L 521.953125 707.820312 L 514.050781 684.105469 L 538.074219 692.113281 L 538.136719 691.921875 L 537.996094 691.78125 L 538.136719 691.921875 " fill-opacity="1" fill-rule="nonzero"/><g clip-path="url(#id6)"><g clip-path="url(#id7)"><g clip-path="url(#id8)"><path fill="#1ccdf4" d="M 353.335938 98.449219 L 362.980469 98.1875 C 368.492188 98.179688 372.164062 103.761719 372.164062 103.761719 L 384.007812 119.382812 L 397.796875 119.507812 C 405.074219 119.558594 402.859375 128.394531 399.511719 128.863281 L 391.773438 129.457031 L 403.816406 147 L 414.710938 146.144531 C 426.515625 145.070312 424.707031 154.867188 418.871094 155.855469 L 411.507812 156.734375 L 430.824219 181.867188 C 468.386719 182.519531 483.847656 182.664062 484.324219 192.238281 C 484.808594 201.875 466.730469 202.050781 431.324219 202.640625 L 411.503906 228.78125 L 420.054688 229.546875 C 425.101562 229.996094 426.296875 238.558594 416.460938 238.320312 L 403.996094 237.972656 L 391.65625 255.71875 L 398.746094 256.632812 C 405.105469 257.34375 405.65625 265.367188 395.757812 265.714844 L 382.972656 265.785156 C 382.515625 265.71875 371.855469 281.054688 371.855469 281.054688 C 366.921875 288.863281 361.015625 287.609375 361.015625 287.609375 L 352.832031 287.066406 L 383.269531 223.457031 C 386.027344 217.945312 387.039062 209.96875 380.6875 204.679688 C 377.285156 201.933594 364.25 199.429688 361.953125 199.628906 L 326.605469 199.003906 C 325.816406 198.871094 306.804688 224.335938 306.804688 224.335938 C 306.148438 224.992188 292.941406 226.796875 292.941406 226.796875 L 301.902344 195.035156 L 293.648438 192.035156 L 302.082031 190.183594 L 293.1875 158.035156 L 306.53125 160.082031 C 309.339844 164.601562 326.386719 185.980469 326.972656 186.179688 C 326.972656 186.179688 358.195312 186.25 360.03125 186.203125 C 370.652344 185.921875 374.429688 185.621094 377.90625 183.714844 C 381.386719 181.804688 384 176.515625 380.882812 163.402344 C 376.589844 145.316406 353.335938 98.449219 353.335938 98.449219 Z M 353.335938 98.449219 " fill-opacity="1" fill-rule="nonzero"/></g></g></g><g clip-path="url(#id9)"><path fill="#4ab8df" d="M 523.804688 645.082031 C 523.804688 659.824219 511.816406 671.8125 497.085938 671.8125 L 255.796875 671.8125 C 241.066406 671.8125 229.078125 659.824219 229.078125 645.082031 L 229.078125 644.917969 C 229.078125 630.175781 241.066406 618.1875 255.796875 618.1875 L 497.085938 618.1875 C 511.816406 618.1875 523.804688 630.175781 523.804688 644.917969 Z M 497.085938 615.550781 L 255.796875 615.550781 C 239.589844 615.550781 226.441406 628.699219 226.441406 644.917969 L 226.441406 645.082031 C 226.441406 661.300781 239.589844 674.449219 255.796875 674.449219 L 497.085938 674.449219 C 513.292969 674.449219 526.441406 661.300781 526.441406 645.082031 L 526.441406 644.917969 C 526.441406 628.699219 513.292969 615.550781 497.085938 615.550781 " fill-opacity="1" fill-rule="nonzero"/></g><path fill="#4ab8df" d="M 255.796875 669.175781 C 242.507812 669.175781 231.703125 658.371094 231.703125 645.082031 L 231.703125 644.917969 C 231.703125 631.628906 242.507812 620.824219 255.796875 620.824219 L 497.085938 620.824219 C 510.375 620.824219 521.179688 631.628906 521.179688 644.917969 L 521.179688 645.082031 C 521.179688 658.371094 510.375 669.175781 497.085938 669.175781 L 255.796875 669.175781 " fill-opacity="1" fill-rule="nonzero"/><path fill="#ffffff" d="M 272.414062 644.929688 L 258.632812 631.148438 C 257.296875 632.496094 257.296875 634.664062 258.632812 636 L 267.574219 644.941406 L 258.632812 653.882812 C 257.296875 655.21875 257.296875 657.386719 258.632812 658.734375 L 272.414062 644.941406 L 272.402344 644.941406 L 272.414062 644.929688 " fill-opacity="1" fill-rule="nonzero"/><path fill="#ffffff" d="M 264.1875 644.929688 L 250.40625 631.148438 C 249.070312 632.496094 249.070312 634.664062 250.40625 636 L 259.347656 644.941406 L 250.40625 653.882812 C 249.070312 655.21875 249.070312 657.386719 250.40625 658.734375 L 264.1875 644.941406 L 264.1875 644.929688 " fill-opacity="1" fill-rule="nonzero"/><g fill="#ffffff" fill-opacity="1"><g transform="translate(291.271834, 654.999946)"><g><path d="M 15.6875 -21.421875 L 17.3125 -21.421875 L 9.296875 0 L 7.984375 0 L 0 -21.421875 L 1.59375 -21.421875 L 6.984375 -6.84375 C 7.804688 -4.644531 8.359375 -2.992188 8.640625 -1.890625 C 8.835938 -2.617188 9.222656 -3.753906 9.796875 -5.296875 Z M 15.6875 -21.421875 "/></g></g><g transform="translate(308.586285, 654.999946)"><g><path d="M 15.828125 -7.984375 C 15.828125 -5.390625 15.195312 -3.359375 13.9375 -1.890625 C 12.6875 -0.429688 10.953125 0.296875 8.734375 0.296875 C 7.335938 0.296875 6.101562 -0.0390625 5.03125 -0.71875 C 3.96875 -1.394531 3.15625 -2.363281 2.59375 -3.625 C 2.03125 -4.882812 1.75 -6.335938 1.75 -7.984375 C 1.75 -10.578125 2.375 -12.597656 3.625 -14.046875 C 4.882812 -15.503906 6.613281 -16.234375 8.8125 -16.234375 C 11 -16.234375 12.710938 -15.5 13.953125 -14.03125 C 15.203125 -12.5625 15.828125 -10.546875 15.828125 -7.984375 Z M 3.265625 -7.984375 C 3.265625 -5.796875 3.742188 -4.085938 4.703125 -2.859375 C 5.671875 -1.640625 7.035156 -1.03125 8.796875 -1.03125 C 10.546875 -1.03125 11.898438 -1.640625 12.859375 -2.859375 C 13.828125 -4.085938 14.3125 -5.796875 14.3125 -7.984375 C 14.3125 -10.179688 13.820312 -11.882812 12.84375 -13.09375 C 11.875 -14.300781 10.515625 -14.90625 8.765625 -14.90625 C 7.003906 -14.90625 5.644531 -14.300781 4.6875 -13.09375 C 3.738281 -11.894531 3.265625 -10.191406 3.265625 -7.984375 Z M 3.265625 -7.984375 "/></g></g><g transform="translate(326.164408, 654.999946)"><g><path d="M 4.109375 0 L 2.671875 0 L 2.671875 -22.796875 L 4.109375 -22.796875 Z M 4.109375 0 "/></g></g><g transform="translate(332.946634, 654.999946)"><g><path d="M 6.15625 0 L 0 -15.921875 L 1.5 -15.921875 L 5.609375 -5.09375 C 6.160156 -3.707031 6.570312 -2.5 6.84375 -1.46875 L 6.921875 -1.46875 C 7.328125 -2.789062 7.738281 -4.007812 8.15625 -5.125 L 12.28125 -15.921875 L 13.765625 -15.921875 L 7.625 0 Z M 6.15625 0 "/></g></g><g transform="translate(346.716164, 654.999946)"><g><path d="M 9.09375 0.296875 C 6.78125 0.296875 4.976562 -0.414062 3.6875 -1.84375 C 2.394531 -3.269531 1.75 -5.269531 1.75 -7.84375 C 1.75 -10.375 2.375 -12.40625 3.625 -13.9375 C 4.875 -15.46875 6.554688 -16.234375 8.671875 -16.234375 C 10.546875 -16.234375 12.023438 -15.578125 13.109375 -14.265625 C 14.191406 -12.960938 14.734375 -11.1875 14.734375 -8.9375 L 14.734375 -7.765625 L 3.265625 -7.765625 C 3.285156 -5.578125 3.796875 -3.90625 4.796875 -2.75 C 5.796875 -1.601562 7.226562 -1.03125 9.09375 -1.03125 C 10 -1.03125 10.796875 -1.09375 11.484375 -1.21875 C 12.179688 -1.34375 13.054688 -1.613281 14.109375 -2.03125 L 14.109375 -0.71875 C 13.210938 -0.320312 12.378906 -0.0546875 11.609375 0.078125 C 10.847656 0.222656 10.007812 0.296875 9.09375 0.296875 Z M 8.671875 -14.9375 C 7.140625 -14.9375 5.910156 -14.429688 4.984375 -13.421875 C 4.054688 -12.410156 3.515625 -10.953125 3.359375 -9.046875 L 13.203125 -9.046875 C 13.203125 -10.898438 12.800781 -12.34375 12 -13.375 C 11.195312 -14.414062 10.085938 -14.9375 8.671875 -14.9375 Z M 8.671875 -14.9375 "/></g></g><g transform="translate(363.181006, 654.999946)"><g><path d="M 8.9375 -16.234375 C 9.613281 -16.234375 10.335938 -16.164062 11.109375 -16.03125 L 10.828125 -14.640625 C 10.160156 -14.804688 9.472656 -14.890625 8.765625 -14.890625 C 7.398438 -14.890625 6.28125 -14.3125 5.40625 -13.15625 C 4.539062 -12 4.109375 -10.546875 4.109375 -8.796875 L 4.109375 0 L 2.671875 0 L 2.671875 -15.921875 L 3.890625 -15.921875 L 4.046875 -13.046875 L 4.140625 -13.046875 C 4.796875 -14.222656 5.492188 -15.046875 6.234375 -15.515625 C 6.984375 -15.992188 7.882812 -16.234375 8.9375 -16.234375 Z M 8.9375 -16.234375 "/></g></g><g transform="translate(374.85581, 654.999946)"><g/></g><g transform="translate(382.648778, 654.999946)"><g><path d="M 12.328125 0 L 11.96875 -2.515625 L 11.84375 -2.515625 C 11.050781 -1.492188 10.226562 -0.769531 9.375 -0.34375 C 8.53125 0.0820312 7.535156 0.296875 6.390625 0.296875 C 4.828125 0.296875 3.609375 -0.101562 2.734375 -0.90625 C 1.867188 -1.707031 1.4375 -2.816406 1.4375 -4.234375 C 1.4375 -5.785156 2.082031 -6.988281 3.375 -7.84375 C 4.664062 -8.707031 6.539062 -9.164062 9 -9.21875 L 12.03125 -9.296875 L 12.03125 -10.359375 C 12.03125 -11.867188 11.722656 -13.007812 11.109375 -13.78125 C 10.492188 -14.550781 9.5 -14.9375 8.125 -14.9375 C 6.65625 -14.9375 5.128906 -14.53125 3.546875 -13.71875 L 3 -14.96875 C 4.75 -15.789062 6.476562 -16.203125 8.1875 -16.203125 C 9.9375 -16.203125 11.242188 -15.75 12.109375 -14.84375 C 12.972656 -13.9375 13.40625 -12.519531 13.40625 -10.59375 L 13.40625 0 Z M 6.46875 -1.03125 C 8.175781 -1.03125 9.519531 -1.515625 10.5 -2.484375 C 11.476562 -3.453125 11.96875 -4.800781 11.96875 -6.53125 L 11.96875 -8.09375 L 9.1875 -7.984375 C 6.945312 -7.878906 5.347656 -7.53125 4.390625 -6.9375 C 3.441406 -6.34375 2.96875 -5.421875 2.96875 -4.171875 C 2.96875 -3.179688 3.273438 -2.410156 3.890625 -1.859375 C 4.503906 -1.304688 5.363281 -1.03125 6.46875 -1.03125 Z M 6.46875 -1.03125 "/></g></g><g transform="translate(398.542331, 654.999946)"><g><path d="M 4.109375 0 L 2.671875 0 L 2.671875 -22.796875 L 4.109375 -22.796875 Z M 4.109375 0 "/></g></g><g transform="translate(405.324556, 654.999946)"><g/></g><g transform="translate(413.117524, 654.999946)"><g><path d="M 4.109375 0 L 2.671875 0 L 2.671875 -15.921875 L 4.109375 -15.921875 Z M 2.46875 -20.34375 C 2.46875 -21.28125 2.773438 -21.75 3.390625 -21.75 C 3.691406 -21.75 3.925781 -21.625 4.09375 -21.375 C 4.257812 -21.132812 4.34375 -20.789062 4.34375 -20.34375 C 4.34375 -19.90625 4.257812 -19.554688 4.09375 -19.296875 C 3.925781 -19.046875 3.691406 -18.921875 3.390625 -18.921875 C 2.773438 -18.921875 2.46875 -19.394531 2.46875 -20.34375 Z M 2.46875 -20.34375 "/></g></g><g transform="translate(419.89975, 654.999946)"><g><path d="M 13.765625 0 L 13.765625 -10.328125 C 13.765625 -11.929688 13.425781 -13.09375 12.75 -13.8125 C 12.082031 -14.539062 11.039062 -14.90625 9.625 -14.90625 C 7.71875 -14.90625 6.320312 -14.425781 5.4375 -13.46875 C 4.550781 -12.507812 4.109375 -10.953125 4.109375 -8.796875 L 4.109375 0 L 2.671875 0 L 2.671875 -15.921875 L 3.890625 -15.921875 L 4.171875 -13.734375 L 4.265625 -13.734375 C 5.296875 -15.398438 7.132812 -16.234375 9.78125 -16.234375 C 13.394531 -16.234375 15.203125 -14.296875 15.203125 -10.421875 L 15.203125 0 Z M 13.765625 0 "/></g></g><g transform="translate(437.595061, 654.999946)"><g><path d="M 4.109375 0 L 2.671875 0 L 2.671875 -15.921875 L 4.109375 -15.921875 Z M 2.46875 -20.34375 C 2.46875 -21.28125 2.773438 -21.75 3.390625 -21.75 C 3.691406 -21.75 3.925781 -21.625 4.09375 -21.375 C 4.257812 -21.132812 4.34375 -20.789062 4.34375 -20.34375 C 4.34375 -19.90625 4.257812 -19.554688 4.09375 -19.296875 C 3.925781 -19.046875 3.691406 -18.921875 3.390625 -18.921875 C 2.773438 -18.921875 2.46875 -19.394531 2.46875 -20.34375 Z M 2.46875 -20.34375 "/></g></g><g transform="translate(444.377287, 654.999946)"><g><path d="M 9.03125 0.296875 C 6.75 0.296875 4.960938 -0.421875 3.671875 -1.859375 C 2.390625 -3.296875 1.75 -5.296875 1.75 -7.859375 C 1.75 -10.503906 2.414062 -12.5625 3.75 -14.03125 C 5.082031 -15.5 6.914062 -16.234375 9.25 -16.234375 C 10.625 -16.234375 11.941406 -15.992188 13.203125 -15.515625 L 12.796875 -14.21875 C 11.421875 -14.675781 10.226562 -14.90625 9.21875 -14.90625 C 7.257812 -14.90625 5.773438 -14.300781 4.765625 -13.09375 C 3.765625 -11.894531 3.265625 -10.160156 3.265625 -7.890625 C 3.265625 -5.742188 3.765625 -4.0625 4.765625 -2.84375 C 5.773438 -1.632812 7.1875 -1.03125 9 -1.03125 C 10.4375 -1.03125 11.773438 -1.285156 13.015625 -1.796875 L 13.015625 -0.453125 C 12.003906 0.046875 10.675781 0.296875 9.03125 0.296875 Z M 9.03125 0.296875 "/></g></g><g transform="translate(458.630215, 654.999946)"><g><path d="M 4.109375 0 L 2.671875 0 L 2.671875 -15.921875 L 4.109375 -15.921875 Z M 2.46875 -20.34375 C 2.46875 -21.28125 2.773438 -21.75 3.390625 -21.75 C 3.691406 -21.75 3.925781 -21.625 4.09375 -21.375 C 4.257812 -21.132812 4.34375 -20.789062 4.34375 -20.34375 C 4.34375 -19.90625 4.257812 -19.554688 4.09375 -19.296875 C 3.925781 -19.046875 3.691406 -18.921875 3.390625 -18.921875 C 2.773438 -18.921875 2.46875 -19.394531 2.46875 -20.34375 Z M 2.46875 -20.34375 "/></g></g><g transform="translate(465.412441, 654.999946)"><g><path d="M 15.828125 -7.984375 C 15.828125 -5.390625 15.195312 -3.359375 13.9375 -1.890625 C 12.6875 -0.429688 10.953125 0.296875 8.734375 0.296875 C 7.335938 0.296875 6.101562 -0.0390625 5.03125 -0.71875 C 3.96875 -1.394531 3.15625 -2.363281 2.59375 -3.625 C 2.03125 -4.882812 1.75 -6.335938 1.75 -7.984375 C 1.75 -10.578125 2.375 -12.597656 3.625 -14.046875 C 4.882812 -15.503906 6.613281 -16.234375 8.8125 -16.234375 C 11 -16.234375 12.710938 -15.5 13.953125 -14.03125 C 15.203125 -12.5625 15.828125 -10.546875 15.828125 -7.984375 Z M 3.265625 -7.984375 C 3.265625 -5.796875 3.742188 -4.085938 4.703125 -2.859375 C 5.671875 -1.640625 7.035156 -1.03125 8.796875 -1.03125 C 10.546875 -1.03125 11.898438 -1.640625 12.859375 -2.859375 C 13.828125 -4.085938 14.3125 -5.796875 14.3125 -7.984375 C 14.3125 -10.179688 13.820312 -11.882812 12.84375 -13.09375 C 11.875 -14.300781 10.515625 -14.90625 8.765625 -14.90625 C 7.003906 -14.90625 5.644531 -14.300781 4.6875 -13.09375 C 3.738281 -11.894531 3.265625 -10.191406 3.265625 -7.984375 Z M 3.265625 -7.984375 "/></g></g></g></svg>