<svg xmlns="http://www.w3.org/2000/svg" xmlns:xlink="http://www.w3.org/1999/xlink" width="559" zoomAndPan="magnify" viewBox="0 0 419.25 297.749993" height="396" preserveAspectRatio="xMidYMid meet" version="1.0"><defs><g/><clipPath id="id1"><path d="M 25.40625 23.851562 L 394.496094 23.851562 L 394.496094 273.902344 L 25.40625 273.902344 Z M 25.40625 23.851562 " clip-rule="nonzero"/></clipPath><clipPath id="id2"><path d="M 25.722656 23.980469 L 394.0625 23.980469 L 394.0625 55.425781 L 25.722656 55.425781 Z M 25.722656 23.980469 " clip-rule="nonzero"/></clipPath><clipPath id="id3"><path d="M 34.964844 34.292969 L 45.277344 34.292969 L 45.277344 44.601562 L 34.964844 44.601562 Z M 34.964844 34.292969 " clip-rule="nonzero"/></clipPath><clipPath id="id4"><path d="M 50.03125 34.292969 L 60.34375 34.292969 L 60.34375 44.601562 L 50.03125 44.601562 Z M 50.03125 34.292969 " clip-rule="nonzero"/></clipPath><clipPath id="id5"><path d="M 65.585938 33.90625 L 75.894531 33.90625 L 75.894531 44.21875 L 65.585938 44.21875 Z M 65.585938 33.90625 " clip-rule="nonzero"/></clipPath><clipPath id="id6"><path d="M 63.769531 204.039062 L 355.746094 204.039062 L 355.746094 206.285156 L 63.769531 206.285156 Z M 63.769531 204.039062 " clip-rule="nonzero"/></clipPath><clipPath id="id7"><path d="M 173.574219 71 L 244 71 L 244 140.261719 L 173.574219 140.261719 Z M 173.574219 71 " clip-rule="nonzero"/></clipPath></defs><g clip-path="url(#id1)"><path fill="#fefaeb" d="M 390.785156 23.851562 L 25.410156 23.851562 L 25.410156 273.902344 L 394.492188 273.902344 L 394.492188 23.851562 L 390.785156 23.851562 M 390.785156 270.191406 L 29.160156 270.191406 L 29.160156 27.605469 L 390.785156 27.605469 L 390.785156 270.191406 " fill-opacity="1" fill-rule="nonzero"/></g><g clip-path="url(#id2)"><path fill="#fefaeb" d="M 25.722656 -144.5625 L 394.0625 -144.5625 L 394.0625 223.78125 L 25.722656 223.78125 Z M 25.722656 -144.5625 " fill-opacity="1" fill-rule="nonzero"/></g><g clip-path="url(#id3)"><path fill="#37424f" d="M 40.121094 34.292969 C 39.78125 34.292969 39.449219 34.324219 39.117188 34.390625 C 38.785156 34.457031 38.460938 34.554688 38.148438 34.683594 C 37.835938 34.8125 37.539062 34.972656 37.257812 35.160156 C 36.976562 35.347656 36.714844 35.5625 36.476562 35.800781 C 36.238281 36.039062 36.023438 36.300781 35.835938 36.582031 C 35.648438 36.863281 35.488281 37.160156 35.359375 37.472656 C 35.230469 37.785156 35.132812 38.109375 35.066406 38.441406 C 35 38.773438 34.964844 39.109375 34.964844 39.445312 C 34.964844 39.785156 35 40.121094 35.066406 40.453125 C 35.132812 40.785156 35.230469 41.105469 35.359375 41.421875 C 35.488281 41.734375 35.648438 42.03125 35.835938 42.3125 C 36.023438 42.59375 36.238281 42.851562 36.476562 43.09375 C 36.714844 43.332031 36.976562 43.546875 37.257812 43.734375 C 37.539062 43.921875 37.835938 44.082031 38.148438 44.210938 C 38.460938 44.339844 38.785156 44.4375 39.117188 44.503906 C 39.449219 44.570312 39.78125 44.601562 40.121094 44.601562 C 40.460938 44.601562 40.796875 44.570312 41.128906 44.503906 C 41.460938 44.4375 41.78125 44.339844 42.09375 44.210938 C 42.40625 44.082031 42.703125 43.921875 42.984375 43.734375 C 43.265625 43.546875 43.527344 43.332031 43.765625 43.09375 C 44.007812 42.851562 44.21875 42.59375 44.40625 42.3125 C 44.597656 42.03125 44.753906 41.734375 44.882812 41.421875 C 45.015625 41.105469 45.113281 40.785156 45.179688 40.453125 C 45.242188 40.121094 45.277344 39.785156 45.277344 39.445312 C 45.277344 39.109375 45.242188 38.773438 45.179688 38.441406 C 45.113281 38.109375 45.015625 37.785156 44.882812 37.472656 C 44.753906 37.160156 44.597656 36.863281 44.40625 36.582031 C 44.21875 36.300781 44.007812 36.039062 43.765625 35.800781 C 43.527344 35.5625 43.265625 35.347656 42.984375 35.160156 C 42.703125 34.972656 42.40625 34.8125 42.09375 34.683594 C 41.78125 34.554688 41.460938 34.457031 41.128906 34.390625 C 40.796875 34.324219 40.460938 34.292969 40.121094 34.292969 Z M 40.121094 34.292969 " fill-opacity="1" fill-rule="nonzero"/></g><g clip-path="url(#id4)"><path fill="#37424f" d="M 55.1875 34.292969 C 54.847656 34.292969 54.515625 34.324219 54.183594 34.390625 C 53.851562 34.457031 53.527344 34.554688 53.214844 34.683594 C 52.902344 34.8125 52.605469 34.972656 52.324219 35.160156 C 52.042969 35.347656 51.78125 35.5625 51.542969 35.800781 C 51.304688 36.039062 51.089844 36.300781 50.902344 36.582031 C 50.714844 36.863281 50.554688 37.160156 50.425781 37.472656 C 50.296875 37.785156 50.199219 38.109375 50.132812 38.441406 C 50.066406 38.773438 50.03125 39.109375 50.03125 39.445312 C 50.03125 39.785156 50.066406 40.121094 50.132812 40.453125 C 50.199219 40.785156 50.296875 41.105469 50.425781 41.421875 C 50.554688 41.734375 50.714844 42.03125 50.902344 42.3125 C 51.089844 42.59375 51.304688 42.851562 51.542969 43.09375 C 51.78125 43.332031 52.042969 43.546875 52.324219 43.734375 C 52.605469 43.921875 52.902344 44.082031 53.214844 44.210938 C 53.527344 44.339844 53.851562 44.4375 54.183594 44.503906 C 54.515625 44.570312 54.847656 44.601562 55.1875 44.601562 C 55.527344 44.601562 55.863281 44.570312 56.195312 44.503906 C 56.527344 44.4375 56.847656 44.339844 57.160156 44.210938 C 57.472656 44.082031 57.769531 43.921875 58.050781 43.734375 C 58.332031 43.546875 58.59375 43.332031 58.832031 43.09375 C 59.074219 42.851562 59.285156 42.59375 59.476562 42.3125 C 59.664062 42.03125 59.820312 41.734375 59.953125 41.421875 C 60.082031 41.105469 60.179688 40.785156 60.246094 40.453125 C 60.3125 40.121094 60.34375 39.785156 60.34375 39.445312 C 60.34375 39.109375 60.3125 38.773438 60.246094 38.441406 C 60.179688 38.109375 60.082031 37.785156 59.953125 37.472656 C 59.820312 37.160156 59.664062 36.863281 59.476562 36.582031 C 59.285156 36.300781 59.074219 36.039062 58.832031 35.800781 C 58.59375 35.5625 58.332031 35.347656 58.050781 35.160156 C 57.769531 34.972656 57.472656 34.8125 57.160156 34.683594 C 56.847656 34.554688 56.527344 34.457031 56.195312 34.390625 C 55.863281 34.324219 55.527344 34.292969 55.1875 34.292969 Z M 55.1875 34.292969 " fill-opacity="1" fill-rule="nonzero"/></g><g clip-path="url(#id5)"><path fill="#37424f" d="M 70.742188 33.90625 C 70.402344 33.90625 70.066406 33.941406 69.734375 34.007812 C 69.402344 34.074219 69.082031 34.171875 68.769531 34.300781 C 68.453125 34.429688 68.15625 34.589844 67.875 34.777344 C 67.59375 34.964844 67.335938 35.179688 67.09375 35.417969 C 66.855469 35.65625 66.640625 35.917969 66.453125 36.199219 C 66.265625 36.480469 66.105469 36.777344 65.976562 37.089844 C 65.847656 37.402344 65.75 37.726562 65.683594 38.058594 C 65.617188 38.390625 65.585938 38.722656 65.585938 39.0625 C 65.585938 39.402344 65.617188 39.738281 65.683594 40.070312 C 65.75 40.402344 65.847656 40.722656 65.976562 41.035156 C 66.105469 41.347656 66.265625 41.644531 66.453125 41.925781 C 66.640625 42.207031 66.855469 42.46875 67.09375 42.707031 C 67.335938 42.949219 67.59375 43.160156 67.875 43.347656 C 68.15625 43.539062 68.453125 43.695312 68.769531 43.824219 C 69.082031 43.957031 69.402344 44.054688 69.734375 44.121094 C 70.066406 44.183594 70.402344 44.21875 70.742188 44.21875 C 71.078125 44.21875 71.414062 44.183594 71.746094 44.121094 C 72.078125 44.054688 72.402344 43.957031 72.714844 43.824219 C 73.027344 43.695312 73.324219 43.539062 73.605469 43.347656 C 73.886719 43.160156 74.148438 42.949219 74.386719 42.707031 C 74.625 42.46875 74.839844 42.207031 75.027344 41.925781 C 75.214844 41.644531 75.375 41.347656 75.503906 41.035156 C 75.632812 40.722656 75.730469 40.402344 75.796875 40.070312 C 75.863281 39.738281 75.894531 39.402344 75.894531 39.0625 C 75.894531 38.722656 75.863281 38.390625 75.796875 38.058594 C 75.730469 37.726562 75.632812 37.402344 75.503906 37.089844 C 75.375 36.777344 75.214844 36.480469 75.027344 36.199219 C 74.839844 35.917969 74.625 35.65625 74.386719 35.417969 C 74.148438 35.179688 73.886719 34.964844 73.605469 34.777344 C 73.324219 34.589844 73.027344 34.429688 72.714844 34.300781 C 72.402344 34.171875 72.078125 34.074219 71.746094 34.007812 C 71.414062 33.941406 71.078125 33.90625 70.742188 33.90625 Z M 70.742188 33.90625 " fill-opacity="1" fill-rule="nonzero"/></g><g fill="#fefaeb" fill-opacity="1"><g transform="translate(89.904069, 231.82248)"><g><path d="M 5.21875 -7.59375 L 5.09375 -6.765625 L 2.15625 -6.765625 L 2.15625 -4.28125 L 4.703125 -4.28125 L 4.703125 -3.4375 L 2.15625 -3.4375 L 2.15625 -0.84375 L 5.3125 -0.84375 L 5.3125 0 L 1.109375 0 L 1.109375 -7.59375 Z M 5.21875 -7.59375 "/></g></g></g><g fill="#fefaeb" fill-opacity="1"><g transform="translate(96.350942, 231.82248)"><g><path d="M 2.625 -5.953125 C 3.019531 -5.953125 3.375 -5.894531 3.6875 -5.78125 C 4.007812 -5.664062 4.3125 -5.5 4.59375 -5.28125 L 4.171875 -4.640625 C 3.898438 -4.804688 3.644531 -4.929688 3.40625 -5.015625 C 3.175781 -5.097656 2.925781 -5.140625 2.65625 -5.140625 C 2.320312 -5.140625 2.0625 -5.070312 1.875 -4.9375 C 1.6875 -4.800781 1.59375 -4.613281 1.59375 -4.375 C 1.59375 -4.144531 1.679688 -3.960938 1.859375 -3.828125 C 2.035156 -3.691406 2.359375 -3.5625 2.828125 -3.4375 C 3.484375 -3.28125 3.96875 -3.0625 4.28125 -2.78125 C 4.601562 -2.5 4.765625 -2.113281 4.765625 -1.625 C 4.765625 -1.050781 4.539062 -0.613281 4.09375 -0.3125 C 3.65625 -0.0195312 3.113281 0.125 2.46875 0.125 C 1.582031 0.125 0.851562 -0.125 0.28125 -0.625 L 0.8125 -1.25 C 1.3125 -0.875 1.859375 -0.6875 2.453125 -0.6875 C 2.828125 -0.6875 3.128906 -0.765625 3.359375 -0.921875 C 3.585938 -1.078125 3.703125 -1.289062 3.703125 -1.5625 C 3.703125 -1.757812 3.660156 -1.921875 3.578125 -2.046875 C 3.492188 -2.171875 3.351562 -2.273438 3.15625 -2.359375 C 2.957031 -2.453125 2.664062 -2.550781 2.28125 -2.65625 C 1.664062 -2.820312 1.21875 -3.039062 0.9375 -3.3125 C 0.664062 -3.582031 0.53125 -3.925781 0.53125 -4.34375 C 0.53125 -4.644531 0.617188 -4.914062 0.796875 -5.15625 C 0.972656 -5.40625 1.222656 -5.597656 1.546875 -5.734375 C 1.867188 -5.878906 2.226562 -5.953125 2.625 -5.953125 Z M 2.625 -5.953125 "/></g></g></g><g fill="#fefaeb" fill-opacity="1"><g transform="translate(102.048502, 231.82248)"><g><path d="M 3.984375 -0.265625 C 3.597656 -0.00390625 3.164062 0.125 2.6875 0.125 C 2.1875 0.125 1.796875 -0.015625 1.515625 -0.296875 C 1.242188 -0.578125 1.109375 -0.984375 1.109375 -1.515625 L 1.109375 -5.03125 L 0.09375 -5.03125 L 0.09375 -5.8125 L 1.109375 -5.8125 L 1.109375 -7.125 L 2.125 -7.25 L 2.125 -5.8125 L 3.515625 -5.8125 L 3.390625 -5.03125 L 2.125 -5.03125 L 2.125 -1.5625 C 2.125 -1.257812 2.175781 -1.039062 2.28125 -0.90625 C 2.394531 -0.769531 2.578125 -0.703125 2.828125 -0.703125 C 3.054688 -0.703125 3.3125 -0.78125 3.59375 -0.9375 Z M 3.984375 -0.265625 "/></g></g></g><g fill="#fefaeb" fill-opacity="1"><g transform="translate(106.578006, 231.82248)"><g><path d="M 4.96875 -1.359375 C 4.96875 -1.117188 5.003906 -0.941406 5.078125 -0.828125 C 5.160156 -0.710938 5.285156 -0.628906 5.453125 -0.578125 L 5.21875 0.125 C 4.914062 0.09375 4.671875 0.015625 4.484375 -0.109375 C 4.304688 -0.242188 4.171875 -0.453125 4.078125 -0.734375 C 3.691406 -0.160156 3.113281 0.125 2.34375 0.125 C 1.769531 0.125 1.316406 -0.0351562 0.984375 -0.359375 C 0.660156 -0.679688 0.5 -1.101562 0.5 -1.625 C 0.5 -2.238281 0.71875 -2.710938 1.15625 -3.046875 C 1.601562 -3.378906 2.238281 -3.546875 3.0625 -3.546875 L 3.953125 -3.546875 L 3.953125 -3.96875 C 3.953125 -4.382812 3.851562 -4.679688 3.65625 -4.859375 C 3.457031 -5.035156 3.148438 -5.125 2.734375 -5.125 C 2.304688 -5.125 1.785156 -5.019531 1.171875 -4.8125 L 0.921875 -5.546875 C 1.640625 -5.816406 2.304688 -5.953125 2.921875 -5.953125 C 3.609375 -5.953125 4.117188 -5.78125 4.453125 -5.4375 C 4.796875 -5.101562 4.96875 -4.628906 4.96875 -4.015625 Z M 2.578125 -0.625 C 3.160156 -0.625 3.617188 -0.925781 3.953125 -1.53125 L 3.953125 -2.875 L 3.1875 -2.875 C 2.113281 -2.875 1.578125 -2.472656 1.578125 -1.671875 C 1.578125 -1.328125 1.660156 -1.066406 1.828125 -0.890625 C 1.992188 -0.710938 2.242188 -0.625 2.578125 -0.625 Z M 2.578125 -0.625 "/></g></g></g><g fill="#fefaeb" fill-opacity="1"><g transform="translate(113.124057, 231.82248)"><g/></g></g><g fill="#fefaeb" fill-opacity="1"><g transform="translate(116.595695, 231.82248)"><g><path d="M 3.71875 -5.953125 C 4.457031 -5.953125 5 -5.6875 5.34375 -5.15625 C 5.695312 -4.625 5.875 -3.875 5.875 -2.90625 C 5.875 -2 5.671875 -1.265625 5.265625 -0.703125 C 4.867188 -0.148438 4.304688 0.125 3.578125 0.125 C 2.929688 0.125 2.425781 -0.09375 2.0625 -0.53125 L 2.0625 2.234375 L 1.046875 2.34375 L 1.046875 -5.8125 L 1.921875 -5.8125 L 2 -5.03125 C 2.207031 -5.320312 2.460938 -5.546875 2.765625 -5.703125 C 3.066406 -5.867188 3.382812 -5.953125 3.71875 -5.953125 Z M 3.34375 -0.6875 C 4.300781 -0.6875 4.78125 -1.425781 4.78125 -2.90625 C 4.78125 -4.394531 4.34375 -5.140625 3.46875 -5.140625 C 3.175781 -5.140625 2.910156 -5.054688 2.671875 -4.890625 C 2.441406 -4.722656 2.238281 -4.503906 2.0625 -4.234375 L 2.0625 -1.40625 C 2.207031 -1.175781 2.390625 -1 2.609375 -0.875 C 2.835938 -0.75 3.082031 -0.6875 3.34375 -0.6875 Z M 3.34375 -0.6875 "/></g></g></g><g fill="#fefaeb" fill-opacity="1"><g transform="translate(123.692709, 231.82248)"><g><path d="M 4.96875 -1.359375 C 4.96875 -1.117188 5.003906 -0.941406 5.078125 -0.828125 C 5.160156 -0.710938 5.285156 -0.628906 5.453125 -0.578125 L 5.21875 0.125 C 4.914062 0.09375 4.671875 0.015625 4.484375 -0.109375 C 4.304688 -0.242188 4.171875 -0.453125 4.078125 -0.734375 C 3.691406 -0.160156 3.113281 0.125 2.34375 0.125 C 1.769531 0.125 1.316406 -0.0351562 0.984375 -0.359375 C 0.660156 -0.679688 0.5 -1.101562 0.5 -1.625 C 0.5 -2.238281 0.71875 -2.710938 1.15625 -3.046875 C 1.601562 -3.378906 2.238281 -3.546875 3.0625 -3.546875 L 3.953125 -3.546875 L 3.953125 -3.96875 C 3.953125 -4.382812 3.851562 -4.679688 3.65625 -4.859375 C 3.457031 -5.035156 3.148438 -5.125 2.734375 -5.125 C 2.304688 -5.125 1.785156 -5.019531 1.171875 -4.8125 L 0.921875 -5.546875 C 1.640625 -5.816406 2.304688 -5.953125 2.921875 -5.953125 C 3.609375 -5.953125 4.117188 -5.78125 4.453125 -5.4375 C 4.796875 -5.101562 4.96875 -4.628906 4.96875 -4.015625 Z M 2.578125 -0.625 C 3.160156 -0.625 3.617188 -0.925781 3.953125 -1.53125 L 3.953125 -2.875 L 3.1875 -2.875 C 2.113281 -2.875 1.578125 -2.472656 1.578125 -1.671875 C 1.578125 -1.328125 1.660156 -1.066406 1.828125 -0.890625 C 1.992188 -0.710938 2.242188 -0.625 2.578125 -0.625 Z M 3.75 -8.84375 L 4.203125 -7.984375 L 1.859375 -7.03125 L 1.546875 -7.578125 Z M 3.75 -8.84375 "/></g></g></g><g fill="#fefaeb" fill-opacity="1"><g transform="translate(130.238761, 231.82248)"><g><path d="M 5.734375 -5.546875 C 5.515625 -5.472656 5.269531 -5.425781 5 -5.40625 C 4.738281 -5.382812 4.414062 -5.375 4.03125 -5.375 C 4.71875 -5.0625 5.0625 -4.570312 5.0625 -3.90625 C 5.0625 -3.320312 4.863281 -2.847656 4.46875 -2.484375 C 4.070312 -2.117188 3.53125 -1.9375 2.84375 -1.9375 C 2.582031 -1.9375 2.335938 -1.972656 2.109375 -2.046875 C 2.015625 -1.984375 1.941406 -1.898438 1.890625 -1.796875 C 1.835938 -1.703125 1.8125 -1.601562 1.8125 -1.5 C 1.8125 -1.1875 2.066406 -1.03125 2.578125 -1.03125 L 3.515625 -1.03125 C 3.898438 -1.03125 4.242188 -0.957031 4.546875 -0.8125 C 4.847656 -0.675781 5.082031 -0.484375 5.25 -0.234375 C 5.414062 0.00390625 5.5 0.273438 5.5 0.578125 C 5.5 1.148438 5.265625 1.585938 4.796875 1.890625 C 4.335938 2.191406 3.660156 2.34375 2.765625 2.34375 C 2.140625 2.34375 1.644531 2.28125 1.28125 2.15625 C 0.914062 2.03125 0.65625 1.835938 0.5 1.578125 C 0.351562 1.316406 0.28125 0.984375 0.28125 0.578125 L 1.1875 0.578125 C 1.1875 0.816406 1.226562 1.003906 1.3125 1.140625 C 1.40625 1.273438 1.566406 1.378906 1.796875 1.453125 C 2.023438 1.523438 2.347656 1.5625 2.765625 1.5625 C 3.378906 1.5625 3.816406 1.484375 4.078125 1.328125 C 4.335938 1.179688 4.46875 0.957031 4.46875 0.65625 C 4.46875 0.382812 4.363281 0.175781 4.15625 0.03125 C 3.945312 -0.101562 3.660156 -0.171875 3.296875 -0.171875 L 2.375 -0.171875 C 1.882812 -0.171875 1.507812 -0.273438 1.25 -0.484375 C 1 -0.703125 0.875 -0.96875 0.875 -1.28125 C 0.875 -1.46875 0.929688 -1.648438 1.046875 -1.828125 C 1.160156 -2.003906 1.316406 -2.164062 1.515625 -2.3125 C 1.179688 -2.476562 0.9375 -2.691406 0.78125 -2.953125 C 0.625 -3.222656 0.546875 -3.546875 0.546875 -3.921875 C 0.546875 -4.304688 0.640625 -4.648438 0.828125 -4.953125 C 1.023438 -5.265625 1.296875 -5.507812 1.640625 -5.6875 C 1.984375 -5.863281 2.363281 -5.953125 2.78125 -5.953125 C 3.238281 -5.941406 3.617188 -5.957031 3.921875 -6 C 4.234375 -6.039062 4.488281 -6.09375 4.6875 -6.15625 C 4.894531 -6.226562 5.144531 -6.332031 5.4375 -6.46875 Z M 2.78125 -5.21875 C 2.394531 -5.21875 2.097656 -5.097656 1.890625 -4.859375 C 1.679688 -4.617188 1.578125 -4.304688 1.578125 -3.921875 C 1.578125 -3.523438 1.679688 -3.207031 1.890625 -2.96875 C 2.109375 -2.726562 2.410156 -2.609375 2.796875 -2.609375 C 3.191406 -2.609375 3.492188 -2.722656 3.703125 -2.953125 C 3.921875 -3.179688 4.03125 -3.503906 4.03125 -3.921875 C 4.03125 -4.785156 3.613281 -5.21875 2.78125 -5.21875 Z M 2.78125 -5.21875 "/></g></g></g><g fill="#fefaeb" fill-opacity="1"><g transform="translate(136.520343, 231.82248)"><g><path d="M 2.0625 -5.8125 L 2.0625 0 L 1.046875 0 L 1.046875 -5.8125 Z M 1.546875 -8.609375 C 1.753906 -8.609375 1.925781 -8.539062 2.0625 -8.40625 C 2.195312 -8.269531 2.265625 -8.101562 2.265625 -7.90625 C 2.265625 -7.707031 2.195312 -7.539062 2.0625 -7.40625 C 1.925781 -7.28125 1.753906 -7.21875 1.546875 -7.21875 C 1.335938 -7.21875 1.164062 -7.28125 1.03125 -7.40625 C 0.90625 -7.539062 0.84375 -7.707031 0.84375 -7.90625 C 0.84375 -8.101562 0.90625 -8.269531 1.03125 -8.40625 C 1.164062 -8.539062 1.335938 -8.609375 1.546875 -8.609375 Z M 1.546875 -8.609375 "/></g></g></g><g fill="#fefaeb" fill-opacity="1"><g transform="translate(140.17932, 231.82248)"><g><path d="M 4.96875 -1.359375 C 4.96875 -1.117188 5.003906 -0.941406 5.078125 -0.828125 C 5.160156 -0.710938 5.285156 -0.628906 5.453125 -0.578125 L 5.21875 0.125 C 4.914062 0.09375 4.671875 0.015625 4.484375 -0.109375 C 4.304688 -0.242188 4.171875 -0.453125 4.078125 -0.734375 C 3.691406 -0.160156 3.113281 0.125 2.34375 0.125 C 1.769531 0.125 1.316406 -0.0351562 0.984375 -0.359375 C 0.660156 -0.679688 0.5 -1.101562 0.5 -1.625 C 0.5 -2.238281 0.71875 -2.710938 1.15625 -3.046875 C 1.601562 -3.378906 2.238281 -3.546875 3.0625 -3.546875 L 3.953125 -3.546875 L 3.953125 -3.96875 C 3.953125 -4.382812 3.851562 -4.679688 3.65625 -4.859375 C 3.457031 -5.035156 3.148438 -5.125 2.734375 -5.125 C 2.304688 -5.125 1.785156 -5.019531 1.171875 -4.8125 L 0.921875 -5.546875 C 1.640625 -5.816406 2.304688 -5.953125 2.921875 -5.953125 C 3.609375 -5.953125 4.117188 -5.78125 4.453125 -5.4375 C 4.796875 -5.101562 4.96875 -4.628906 4.96875 -4.015625 Z M 2.578125 -0.625 C 3.160156 -0.625 3.617188 -0.925781 3.953125 -1.53125 L 3.953125 -2.875 L 3.1875 -2.875 C 2.113281 -2.875 1.578125 -2.472656 1.578125 -1.671875 C 1.578125 -1.328125 1.660156 -1.066406 1.828125 -0.890625 C 1.992188 -0.710938 2.242188 -0.625 2.578125 -0.625 Z M 2.578125 -0.625 "/></g></g></g><g fill="#fefaeb" fill-opacity="1"><g transform="translate(146.725372, 231.82248)"><g/></g></g><g fill="#fefaeb" fill-opacity="1"><g transform="translate(150.197009, 231.82248)"><g><path d="M 2.625 -5.953125 C 3.019531 -5.953125 3.375 -5.894531 3.6875 -5.78125 C 4.007812 -5.664062 4.3125 -5.5 4.59375 -5.28125 L 4.171875 -4.640625 C 3.898438 -4.804688 3.644531 -4.929688 3.40625 -5.015625 C 3.175781 -5.097656 2.925781 -5.140625 2.65625 -5.140625 C 2.320312 -5.140625 2.0625 -5.070312 1.875 -4.9375 C 1.6875 -4.800781 1.59375 -4.613281 1.59375 -4.375 C 1.59375 -4.144531 1.679688 -3.960938 1.859375 -3.828125 C 2.035156 -3.691406 2.359375 -3.5625 2.828125 -3.4375 C 3.484375 -3.28125 3.96875 -3.0625 4.28125 -2.78125 C 4.601562 -2.5 4.765625 -2.113281 4.765625 -1.625 C 4.765625 -1.050781 4.539062 -0.613281 4.09375 -0.3125 C 3.65625 -0.0195312 3.113281 0.125 2.46875 0.125 C 1.582031 0.125 0.851562 -0.125 0.28125 -0.625 L 0.8125 -1.25 C 1.3125 -0.875 1.859375 -0.6875 2.453125 -0.6875 C 2.828125 -0.6875 3.128906 -0.765625 3.359375 -0.921875 C 3.585938 -1.078125 3.703125 -1.289062 3.703125 -1.5625 C 3.703125 -1.757812 3.660156 -1.921875 3.578125 -2.046875 C 3.492188 -2.171875 3.351562 -2.273438 3.15625 -2.359375 C 2.957031 -2.453125 2.664062 -2.550781 2.28125 -2.65625 C 1.664062 -2.820312 1.21875 -3.039062 0.9375 -3.3125 C 0.664062 -3.582031 0.53125 -3.925781 0.53125 -4.34375 C 0.53125 -4.644531 0.617188 -4.914062 0.796875 -5.15625 C 0.972656 -5.40625 1.222656 -5.597656 1.546875 -5.734375 C 1.867188 -5.878906 2.226562 -5.953125 2.625 -5.953125 Z M 2.625 -5.953125 "/></g></g></g><g fill="#fefaeb" fill-opacity="1"><g transform="translate(155.894569, 231.82248)"><g><path d="M 5.4375 -3.078125 C 5.4375 -2.910156 5.429688 -2.738281 5.421875 -2.5625 L 1.703125 -2.5625 C 1.753906 -1.914062 1.914062 -1.441406 2.1875 -1.140625 C 2.46875 -0.835938 2.832031 -0.6875 3.28125 -0.6875 C 3.5625 -0.6875 3.816406 -0.726562 4.046875 -0.8125 C 4.285156 -0.894531 4.53125 -1.023438 4.78125 -1.203125 L 5.234375 -0.59375 C 4.609375 -0.113281 3.929688 0.125 3.203125 0.125 C 2.390625 0.125 1.753906 -0.132812 1.296875 -0.65625 C 0.847656 -1.1875 0.625 -1.914062 0.625 -2.84375 C 0.625 -3.445312 0.722656 -3.984375 0.921875 -4.453125 C 1.117188 -4.921875 1.398438 -5.285156 1.765625 -5.546875 C 2.128906 -5.816406 2.554688 -5.953125 3.046875 -5.953125 C 3.816406 -5.953125 4.40625 -5.695312 4.8125 -5.1875 C 5.226562 -4.675781 5.4375 -3.972656 5.4375 -3.078125 Z M 4.4375 -3.375 C 4.4375 -3.945312 4.320312 -4.382812 4.09375 -4.6875 C 3.863281 -4.988281 3.519531 -5.140625 3.0625 -5.140625 C 2.226562 -5.140625 1.773438 -4.53125 1.703125 -3.3125 L 4.4375 -3.3125 Z M 4.4375 -3.375 "/></g></g></g><g fill="#fefaeb" fill-opacity="1"><g transform="translate(162.451633, 231.82248)"><g/></g></g><g fill="#fefaeb" fill-opacity="1"><g transform="translate(165.92327, 231.82248)"><g><path d="M 5.4375 -3.078125 C 5.4375 -2.910156 5.429688 -2.738281 5.421875 -2.5625 L 1.703125 -2.5625 C 1.753906 -1.914062 1.914062 -1.441406 2.1875 -1.140625 C 2.46875 -0.835938 2.832031 -0.6875 3.28125 -0.6875 C 3.5625 -0.6875 3.816406 -0.726562 4.046875 -0.8125 C 4.285156 -0.894531 4.53125 -1.023438 4.78125 -1.203125 L 5.234375 -0.59375 C 4.609375 -0.113281 3.929688 0.125 3.203125 0.125 C 2.390625 0.125 1.753906 -0.132812 1.296875 -0.65625 C 0.847656 -1.1875 0.625 -1.914062 0.625 -2.84375 C 0.625 -3.445312 0.722656 -3.984375 0.921875 -4.453125 C 1.117188 -4.921875 1.398438 -5.285156 1.765625 -5.546875 C 2.128906 -5.816406 2.554688 -5.953125 3.046875 -5.953125 C 3.816406 -5.953125 4.40625 -5.695312 4.8125 -5.1875 C 5.226562 -4.675781 5.4375 -3.972656 5.4375 -3.078125 Z M 4.4375 -3.375 C 4.4375 -3.945312 4.320312 -4.382812 4.09375 -4.6875 C 3.863281 -4.988281 3.519531 -5.140625 3.0625 -5.140625 C 2.226562 -5.140625 1.773438 -4.53125 1.703125 -3.3125 L 4.4375 -3.3125 Z M 4.4375 -3.375 "/></g></g></g><g fill="#fefaeb" fill-opacity="1"><g transform="translate(172.480334, 231.82248)"><g><path d="M 3.78125 -5.953125 C 4.3125 -5.953125 4.722656 -5.789062 5.015625 -5.46875 C 5.316406 -5.15625 5.46875 -4.722656 5.46875 -4.171875 L 5.46875 0 L 4.453125 0 L 4.453125 -4.03125 C 4.453125 -4.4375 4.375 -4.722656 4.21875 -4.890625 C 4.070312 -5.066406 3.847656 -5.15625 3.546875 -5.15625 C 3.234375 -5.15625 2.957031 -5.066406 2.71875 -4.890625 C 2.488281 -4.710938 2.269531 -4.457031 2.0625 -4.125 L 2.0625 0 L 1.046875 0 L 1.046875 -5.8125 L 1.921875 -5.8125 L 2 -4.953125 C 2.207031 -5.265625 2.460938 -5.507812 2.765625 -5.6875 C 3.078125 -5.863281 3.414062 -5.953125 3.78125 -5.953125 Z M 3.78125 -5.953125 "/></g></g></g><g fill="#fefaeb" fill-opacity="1"><g transform="translate(179.489192, 231.82248)"><g><path d="M 3.171875 -5.953125 C 3.515625 -5.953125 3.828125 -5.898438 4.109375 -5.796875 C 4.398438 -5.691406 4.675781 -5.53125 4.9375 -5.3125 L 4.453125 -4.671875 C 4.242188 -4.816406 4.039062 -4.925781 3.84375 -5 C 3.65625 -5.070312 3.441406 -5.109375 3.203125 -5.109375 C 2.734375 -5.109375 2.367188 -4.921875 2.109375 -4.546875 C 1.847656 -4.171875 1.71875 -3.613281 1.71875 -2.875 C 1.71875 -2.144531 1.847656 -1.601562 2.109375 -1.25 C 2.367188 -0.90625 2.734375 -0.734375 3.203125 -0.734375 C 3.429688 -0.734375 3.640625 -0.765625 3.828125 -0.828125 C 4.023438 -0.898438 4.242188 -1.015625 4.484375 -1.171875 L 4.9375 -0.5 C 4.40625 -0.0820312 3.816406 0.125 3.171875 0.125 C 2.378906 0.125 1.753906 -0.132812 1.296875 -0.65625 C 0.847656 -1.1875 0.625 -1.921875 0.625 -2.859375 C 0.625 -3.472656 0.726562 -4.007812 0.9375 -4.46875 C 1.144531 -4.9375 1.4375 -5.300781 1.8125 -5.5625 C 2.1875 -5.820312 2.640625 -5.953125 3.171875 -5.953125 Z M 3.171875 -5.953125 "/></g></g></g><g fill="#fefaeb" fill-opacity="1"><g transform="translate(185.307957, 231.82248)"><g><path d="M 5.375 0 L 4.5 0 L 4.421875 -0.90625 C 4.203125 -0.539062 3.945312 -0.273438 3.65625 -0.109375 C 3.375 0.046875 3.023438 0.125 2.609375 0.125 C 2.109375 0.125 1.710938 -0.0234375 1.421875 -0.328125 C 1.140625 -0.640625 1 -1.078125 1 -1.640625 L 1 -5.8125 L 2 -5.8125 L 2 -1.75 C 2 -1.351562 2.066406 -1.070312 2.203125 -0.90625 C 2.347656 -0.738281 2.582031 -0.65625 2.90625 -0.65625 C 3.46875 -0.65625 3.953125 -0.992188 4.359375 -1.671875 L 4.359375 -5.8125 L 5.375 -5.8125 Z M 5.375 0 "/></g></g></g><g fill="#fefaeb" fill-opacity="1"><g transform="translate(192.272748, 231.82248)"><g><path d="M 5.4375 -3.078125 C 5.4375 -2.910156 5.429688 -2.738281 5.421875 -2.5625 L 1.703125 -2.5625 C 1.753906 -1.914062 1.914062 -1.441406 2.1875 -1.140625 C 2.46875 -0.835938 2.832031 -0.6875 3.28125 -0.6875 C 3.5625 -0.6875 3.816406 -0.726562 4.046875 -0.8125 C 4.285156 -0.894531 4.53125 -1.023438 4.78125 -1.203125 L 5.234375 -0.59375 C 4.609375 -0.113281 3.929688 0.125 3.203125 0.125 C 2.390625 0.125 1.753906 -0.132812 1.296875 -0.65625 C 0.847656 -1.1875 0.625 -1.914062 0.625 -2.84375 C 0.625 -3.445312 0.722656 -3.984375 0.921875 -4.453125 C 1.117188 -4.921875 1.398438 -5.285156 1.765625 -5.546875 C 2.128906 -5.816406 2.554688 -5.953125 3.046875 -5.953125 C 3.816406 -5.953125 4.40625 -5.695312 4.8125 -5.1875 C 5.226562 -4.675781 5.4375 -3.972656 5.4375 -3.078125 Z M 4.4375 -3.375 C 4.4375 -3.945312 4.320312 -4.382812 4.09375 -4.6875 C 3.863281 -4.988281 3.519531 -5.140625 3.0625 -5.140625 C 2.226562 -5.140625 1.773438 -4.53125 1.703125 -3.3125 L 4.4375 -3.3125 Z M 4.4375 -3.375 "/></g></g></g><g fill="#fefaeb" fill-opacity="1"><g transform="translate(198.829812, 231.82248)"><g><path d="M 3.78125 -5.953125 C 4.3125 -5.953125 4.722656 -5.789062 5.015625 -5.46875 C 5.316406 -5.15625 5.46875 -4.722656 5.46875 -4.171875 L 5.46875 0 L 4.453125 0 L 4.453125 -4.03125 C 4.453125 -4.4375 4.375 -4.722656 4.21875 -4.890625 C 4.070312 -5.066406 3.847656 -5.15625 3.546875 -5.15625 C 3.234375 -5.15625 2.957031 -5.066406 2.71875 -4.890625 C 2.488281 -4.710938 2.269531 -4.457031 2.0625 -4.125 L 2.0625 0 L 1.046875 0 L 1.046875 -5.8125 L 1.921875 -5.8125 L 2 -4.953125 C 2.207031 -5.265625 2.460938 -5.507812 2.765625 -5.6875 C 3.078125 -5.863281 3.414062 -5.953125 3.78125 -5.953125 Z M 3.78125 -5.953125 "/></g></g></g><g fill="#fefaeb" fill-opacity="1"><g transform="translate(205.83867, 231.82248)"><g><path d="M 3.984375 -0.265625 C 3.597656 -0.00390625 3.164062 0.125 2.6875 0.125 C 2.1875 0.125 1.796875 -0.015625 1.515625 -0.296875 C 1.242188 -0.578125 1.109375 -0.984375 1.109375 -1.515625 L 1.109375 -5.03125 L 0.09375 -5.03125 L 0.09375 -5.8125 L 1.109375 -5.8125 L 1.109375 -7.125 L 2.125 -7.25 L 2.125 -5.8125 L 3.515625 -5.8125 L 3.390625 -5.03125 L 2.125 -5.03125 L 2.125 -1.5625 C 2.125 -1.257812 2.175781 -1.039062 2.28125 -0.90625 C 2.394531 -0.769531 2.578125 -0.703125 2.828125 -0.703125 C 3.054688 -0.703125 3.3125 -0.78125 3.59375 -0.9375 Z M 3.984375 -0.265625 "/></g></g></g><g fill="#fefaeb" fill-opacity="1"><g transform="translate(210.368173, 231.82248)"><g><path d="M 3.578125 -5.953125 C 3.785156 -5.953125 3.972656 -5.925781 4.140625 -5.875 L 3.953125 -4.890625 C 3.785156 -4.929688 3.617188 -4.953125 3.453125 -4.953125 C 3.085938 -4.953125 2.796875 -4.816406 2.578125 -4.546875 C 2.359375 -4.285156 2.1875 -3.878906 2.0625 -3.328125 L 2.0625 0 L 1.046875 0 L 1.046875 -5.8125 L 1.921875 -5.8125 L 2.015625 -4.640625 C 2.171875 -5.066406 2.378906 -5.390625 2.640625 -5.609375 C 2.910156 -5.835938 3.222656 -5.953125 3.578125 -5.953125 Z M 3.578125 -5.953125 "/></g></g></g><g fill="#fefaeb" fill-opacity="1"><g transform="translate(215.173156, 231.82248)"><g><path d="M 4.96875 -1.359375 C 4.96875 -1.117188 5.003906 -0.941406 5.078125 -0.828125 C 5.160156 -0.710938 5.285156 -0.628906 5.453125 -0.578125 L 5.21875 0.125 C 4.914062 0.09375 4.671875 0.015625 4.484375 -0.109375 C 4.304688 -0.242188 4.171875 -0.453125 4.078125 -0.734375 C 3.691406 -0.160156 3.113281 0.125 2.34375 0.125 C 1.769531 0.125 1.316406 -0.0351562 0.984375 -0.359375 C 0.660156 -0.679688 0.5 -1.101562 0.5 -1.625 C 0.5 -2.238281 0.71875 -2.710938 1.15625 -3.046875 C 1.601562 -3.378906 2.238281 -3.546875 3.0625 -3.546875 L 3.953125 -3.546875 L 3.953125 -3.96875 C 3.953125 -4.382812 3.851562 -4.679688 3.65625 -4.859375 C 3.457031 -5.035156 3.148438 -5.125 2.734375 -5.125 C 2.304688 -5.125 1.785156 -5.019531 1.171875 -4.8125 L 0.921875 -5.546875 C 1.640625 -5.816406 2.304688 -5.953125 2.921875 -5.953125 C 3.609375 -5.953125 4.117188 -5.78125 4.453125 -5.4375 C 4.796875 -5.101562 4.96875 -4.628906 4.96875 -4.015625 Z M 2.578125 -0.625 C 3.160156 -0.625 3.617188 -0.925781 3.953125 -1.53125 L 3.953125 -2.875 L 3.1875 -2.875 C 2.113281 -2.875 1.578125 -2.472656 1.578125 -1.671875 C 1.578125 -1.328125 1.660156 -1.066406 1.828125 -0.890625 C 1.992188 -0.710938 2.242188 -0.625 2.578125 -0.625 Z M 2.578125 -0.625 "/></g></g></g><g fill="#fefaeb" fill-opacity="1"><g transform="translate(221.719208, 231.82248)"><g/></g></g><g fill="#fefaeb" fill-opacity="1"><g transform="translate(225.190845, 231.82248)"><g><path d="M 5.4375 -3.078125 C 5.4375 -2.910156 5.429688 -2.738281 5.421875 -2.5625 L 1.703125 -2.5625 C 1.753906 -1.914062 1.914062 -1.441406 2.1875 -1.140625 C 2.46875 -0.835938 2.832031 -0.6875 3.28125 -0.6875 C 3.5625 -0.6875 3.816406 -0.726562 4.046875 -0.8125 C 4.285156 -0.894531 4.53125 -1.023438 4.78125 -1.203125 L 5.234375 -0.59375 C 4.609375 -0.113281 3.929688 0.125 3.203125 0.125 C 2.390625 0.125 1.753906 -0.132812 1.296875 -0.65625 C 0.847656 -1.1875 0.625 -1.914062 0.625 -2.84375 C 0.625 -3.445312 0.722656 -3.984375 0.921875 -4.453125 C 1.117188 -4.921875 1.398438 -5.285156 1.765625 -5.546875 C 2.128906 -5.816406 2.554688 -5.953125 3.046875 -5.953125 C 3.816406 -5.953125 4.40625 -5.695312 4.8125 -5.1875 C 5.226562 -4.675781 5.4375 -3.972656 5.4375 -3.078125 Z M 4.4375 -3.375 C 4.4375 -3.945312 4.320312 -4.382812 4.09375 -4.6875 C 3.863281 -4.988281 3.519531 -5.140625 3.0625 -5.140625 C 2.226562 -5.140625 1.773438 -4.53125 1.703125 -3.3125 L 4.4375 -3.3125 Z M 4.4375 -3.375 "/></g></g></g><g fill="#fefaeb" fill-opacity="1"><g transform="translate(231.747909, 231.82248)"><g><path d="M 3.78125 -5.953125 C 4.3125 -5.953125 4.722656 -5.789062 5.015625 -5.46875 C 5.316406 -5.15625 5.46875 -4.722656 5.46875 -4.171875 L 5.46875 0 L 4.453125 0 L 4.453125 -4.03125 C 4.453125 -4.4375 4.375 -4.722656 4.21875 -4.890625 C 4.070312 -5.066406 3.847656 -5.15625 3.546875 -5.15625 C 3.234375 -5.15625 2.957031 -5.066406 2.71875 -4.890625 C 2.488281 -4.710938 2.269531 -4.457031 2.0625 -4.125 L 2.0625 0 L 1.046875 0 L 1.046875 -5.8125 L 1.921875 -5.8125 L 2 -4.953125 C 2.207031 -5.265625 2.460938 -5.507812 2.765625 -5.6875 C 3.078125 -5.863281 3.414062 -5.953125 3.78125 -5.953125 Z M 3.78125 -5.953125 "/></g></g></g><g fill="#fefaeb" fill-opacity="1"><g transform="translate(238.756767, 231.82248)"><g/></g></g><g fill="#fefaeb" fill-opacity="1"><g transform="translate(242.228405, 231.82248)"><g><path d="M 6.890625 -5.953125 C 7.359375 -5.953125 7.734375 -5.789062 8.015625 -5.46875 C 8.304688 -5.144531 8.453125 -4.710938 8.453125 -4.171875 L 8.453125 0 L 7.453125 0 L 7.453125 -4.03125 C 7.453125 -4.78125 7.175781 -5.15625 6.625 -5.15625 C 6.34375 -5.15625 6.101562 -5.070312 5.90625 -4.90625 C 5.707031 -4.738281 5.492188 -4.476562 5.265625 -4.125 L 5.265625 0 L 4.25 0 L 4.25 -4.03125 C 4.25 -4.78125 3.976562 -5.15625 3.4375 -5.15625 C 3.132812 -5.15625 2.882812 -5.066406 2.6875 -4.890625 C 2.488281 -4.722656 2.28125 -4.46875 2.0625 -4.125 L 2.0625 0 L 1.046875 0 L 1.046875 -5.8125 L 1.921875 -5.8125 L 2 -4.96875 C 2.4375 -5.625 3 -5.953125 3.6875 -5.953125 C 4.039062 -5.953125 4.34375 -5.859375 4.59375 -5.671875 C 4.851562 -5.484375 5.039062 -5.222656 5.15625 -4.890625 C 5.382812 -5.234375 5.632812 -5.492188 5.90625 -5.671875 C 6.1875 -5.859375 6.515625 -5.953125 6.890625 -5.953125 Z M 6.890625 -5.953125 "/></g></g></g><g fill="#fefaeb" fill-opacity="1"><g transform="translate(252.223509, 231.82248)"><g><path d="M 4.96875 -1.359375 C 4.96875 -1.117188 5.003906 -0.941406 5.078125 -0.828125 C 5.160156 -0.710938 5.285156 -0.628906 5.453125 -0.578125 L 5.21875 0.125 C 4.914062 0.09375 4.671875 0.015625 4.484375 -0.109375 C 4.304688 -0.242188 4.171875 -0.453125 4.078125 -0.734375 C 3.691406 -0.160156 3.113281 0.125 2.34375 0.125 C 1.769531 0.125 1.316406 -0.0351562 0.984375 -0.359375 C 0.660156 -0.679688 0.5 -1.101562 0.5 -1.625 C 0.5 -2.238281 0.71875 -2.710938 1.15625 -3.046875 C 1.601562 -3.378906 2.238281 -3.546875 3.0625 -3.546875 L 3.953125 -3.546875 L 3.953125 -3.96875 C 3.953125 -4.382812 3.851562 -4.679688 3.65625 -4.859375 C 3.457031 -5.035156 3.148438 -5.125 2.734375 -5.125 C 2.304688 -5.125 1.785156 -5.019531 1.171875 -4.8125 L 0.921875 -5.546875 C 1.640625 -5.816406 2.304688 -5.953125 2.921875 -5.953125 C 3.609375 -5.953125 4.117188 -5.78125 4.453125 -5.4375 C 4.796875 -5.101562 4.96875 -4.628906 4.96875 -4.015625 Z M 2.578125 -0.625 C 3.160156 -0.625 3.617188 -0.925781 3.953125 -1.53125 L 3.953125 -2.875 L 3.1875 -2.875 C 2.113281 -2.875 1.578125 -2.472656 1.578125 -1.671875 C 1.578125 -1.328125 1.660156 -1.066406 1.828125 -0.890625 C 1.992188 -0.710938 2.242188 -0.625 2.578125 -0.625 Z M 2.578125 -0.625 "/></g></g></g><g fill="#fefaeb" fill-opacity="1"><g transform="translate(258.769561, 231.82248)"><g><path d="M 3.78125 -5.953125 C 4.3125 -5.953125 4.722656 -5.789062 5.015625 -5.46875 C 5.316406 -5.15625 5.46875 -4.722656 5.46875 -4.171875 L 5.46875 0 L 4.453125 0 L 4.453125 -4.03125 C 4.453125 -4.4375 4.375 -4.722656 4.21875 -4.890625 C 4.070312 -5.066406 3.847656 -5.15625 3.546875 -5.15625 C 3.234375 -5.15625 2.957031 -5.066406 2.71875 -4.890625 C 2.488281 -4.710938 2.269531 -4.457031 2.0625 -4.125 L 2.0625 0 L 1.046875 0 L 1.046875 -5.8125 L 1.921875 -5.8125 L 2 -4.953125 C 2.207031 -5.265625 2.460938 -5.507812 2.765625 -5.6875 C 3.078125 -5.863281 3.414062 -5.953125 3.78125 -5.953125 Z M 3.78125 -5.953125 "/></g></g></g><g fill="#fefaeb" fill-opacity="1"><g transform="translate(265.778419, 231.82248)"><g><path d="M 3.984375 -0.265625 C 3.597656 -0.00390625 3.164062 0.125 2.6875 0.125 C 2.1875 0.125 1.796875 -0.015625 1.515625 -0.296875 C 1.242188 -0.578125 1.109375 -0.984375 1.109375 -1.515625 L 1.109375 -5.03125 L 0.09375 -5.03125 L 0.09375 -5.8125 L 1.109375 -5.8125 L 1.109375 -7.125 L 2.125 -7.25 L 2.125 -5.8125 L 3.515625 -5.8125 L 3.390625 -5.03125 L 2.125 -5.03125 L 2.125 -1.5625 C 2.125 -1.257812 2.175781 -1.039062 2.28125 -0.90625 C 2.394531 -0.769531 2.578125 -0.703125 2.828125 -0.703125 C 3.054688 -0.703125 3.3125 -0.78125 3.59375 -0.9375 Z M 3.984375 -0.265625 "/></g></g></g><g fill="#fefaeb" fill-opacity="1"><g transform="translate(270.307921, 231.82248)"><g><path d="M 5.4375 -3.078125 C 5.4375 -2.910156 5.429688 -2.738281 5.421875 -2.5625 L 1.703125 -2.5625 C 1.753906 -1.914062 1.914062 -1.441406 2.1875 -1.140625 C 2.46875 -0.835938 2.832031 -0.6875 3.28125 -0.6875 C 3.5625 -0.6875 3.816406 -0.726562 4.046875 -0.8125 C 4.285156 -0.894531 4.53125 -1.023438 4.78125 -1.203125 L 5.234375 -0.59375 C 4.609375 -0.113281 3.929688 0.125 3.203125 0.125 C 2.390625 0.125 1.753906 -0.132812 1.296875 -0.65625 C 0.847656 -1.1875 0.625 -1.914062 0.625 -2.84375 C 0.625 -3.445312 0.722656 -3.984375 0.921875 -4.453125 C 1.117188 -4.921875 1.398438 -5.285156 1.765625 -5.546875 C 2.128906 -5.816406 2.554688 -5.953125 3.046875 -5.953125 C 3.816406 -5.953125 4.40625 -5.695312 4.8125 -5.1875 C 5.226562 -4.675781 5.4375 -3.972656 5.4375 -3.078125 Z M 4.4375 -3.375 C 4.4375 -3.945312 4.320312 -4.382812 4.09375 -4.6875 C 3.863281 -4.988281 3.519531 -5.140625 3.0625 -5.140625 C 2.226562 -5.140625 1.773438 -4.53125 1.703125 -3.3125 L 4.4375 -3.3125 Z M 4.4375 -3.375 "/></g></g></g><g fill="#fefaeb" fill-opacity="1"><g transform="translate(276.864985, 231.82248)"><g><path d="M 3.78125 -5.953125 C 4.3125 -5.953125 4.722656 -5.789062 5.015625 -5.46875 C 5.316406 -5.15625 5.46875 -4.722656 5.46875 -4.171875 L 5.46875 0 L 4.453125 0 L 4.453125 -4.03125 C 4.453125 -4.4375 4.375 -4.722656 4.21875 -4.890625 C 4.070312 -5.066406 3.847656 -5.15625 3.546875 -5.15625 C 3.234375 -5.15625 2.957031 -5.066406 2.71875 -4.890625 C 2.488281 -4.710938 2.269531 -4.457031 2.0625 -4.125 L 2.0625 0 L 1.046875 0 L 1.046875 -5.8125 L 1.921875 -5.8125 L 2 -4.953125 C 2.207031 -5.265625 2.460938 -5.507812 2.765625 -5.6875 C 3.078125 -5.863281 3.414062 -5.953125 3.78125 -5.953125 Z M 3.78125 -5.953125 "/></g></g></g><g fill="#fefaeb" fill-opacity="1"><g transform="translate(283.873855, 231.82248)"><g><path d="M 2.0625 -5.8125 L 2.0625 0 L 1.046875 0 L 1.046875 -5.8125 Z M 1.546875 -8.609375 C 1.753906 -8.609375 1.925781 -8.539062 2.0625 -8.40625 C 2.195312 -8.269531 2.265625 -8.101562 2.265625 -7.90625 C 2.265625 -7.707031 2.195312 -7.539062 2.0625 -7.40625 C 1.925781 -7.28125 1.753906 -7.21875 1.546875 -7.21875 C 1.335938 -7.21875 1.164062 -7.28125 1.03125 -7.40625 C 0.90625 -7.539062 0.84375 -7.707031 0.84375 -7.90625 C 0.84375 -8.101562 0.90625 -8.269531 1.03125 -8.40625 C 1.164062 -8.539062 1.335938 -8.609375 1.546875 -8.609375 Z M 1.546875 -8.609375 "/></g></g></g><g fill="#fefaeb" fill-opacity="1"><g transform="translate(287.532829, 231.82248)"><g><path d="M 6.890625 -5.953125 C 7.359375 -5.953125 7.734375 -5.789062 8.015625 -5.46875 C 8.304688 -5.144531 8.453125 -4.710938 8.453125 -4.171875 L 8.453125 0 L 7.453125 0 L 7.453125 -4.03125 C 7.453125 -4.78125 7.175781 -5.15625 6.625 -5.15625 C 6.34375 -5.15625 6.101562 -5.070312 5.90625 -4.90625 C 5.707031 -4.738281 5.492188 -4.476562 5.265625 -4.125 L 5.265625 0 L 4.25 0 L 4.25 -4.03125 C 4.25 -4.78125 3.976562 -5.15625 3.4375 -5.15625 C 3.132812 -5.15625 2.882812 -5.066406 2.6875 -4.890625 C 2.488281 -4.722656 2.28125 -4.46875 2.0625 -4.125 L 2.0625 0 L 1.046875 0 L 1.046875 -5.8125 L 1.921875 -5.8125 L 2 -4.96875 C 2.4375 -5.625 3 -5.953125 3.6875 -5.953125 C 4.039062 -5.953125 4.34375 -5.859375 4.59375 -5.671875 C 4.851562 -5.484375 5.039062 -5.222656 5.15625 -4.890625 C 5.382812 -5.234375 5.632812 -5.492188 5.90625 -5.671875 C 6.1875 -5.859375 6.515625 -5.953125 6.890625 -5.953125 Z M 6.890625 -5.953125 "/></g></g></g><g fill="#fefaeb" fill-opacity="1"><g transform="translate(297.527933, 231.82248)"><g><path d="M 2.0625 -5.8125 L 2.0625 0 L 1.046875 0 L 1.046875 -5.8125 Z M 1.546875 -8.609375 C 1.753906 -8.609375 1.925781 -8.539062 2.0625 -8.40625 C 2.195312 -8.269531 2.265625 -8.101562 2.265625 -7.90625 C 2.265625 -7.707031 2.195312 -7.539062 2.0625 -7.40625 C 1.925781 -7.28125 1.753906 -7.21875 1.546875 -7.21875 C 1.335938 -7.21875 1.164062 -7.28125 1.03125 -7.40625 C 0.90625 -7.539062 0.84375 -7.707031 0.84375 -7.90625 C 0.84375 -8.101562 0.90625 -8.269531 1.03125 -8.40625 C 1.164062 -8.539062 1.335938 -8.609375 1.546875 -8.609375 Z M 1.546875 -8.609375 "/></g></g></g><g fill="#fefaeb" fill-opacity="1"><g transform="translate(301.186907, 231.82248)"><g><path d="M 5.4375 -3.078125 C 5.4375 -2.910156 5.429688 -2.738281 5.421875 -2.5625 L 1.703125 -2.5625 C 1.753906 -1.914062 1.914062 -1.441406 2.1875 -1.140625 C 2.46875 -0.835938 2.832031 -0.6875 3.28125 -0.6875 C 3.5625 -0.6875 3.816406 -0.726562 4.046875 -0.8125 C 4.285156 -0.894531 4.53125 -1.023438 4.78125 -1.203125 L 5.234375 -0.59375 C 4.609375 -0.113281 3.929688 0.125 3.203125 0.125 C 2.390625 0.125 1.753906 -0.132812 1.296875 -0.65625 C 0.847656 -1.1875 0.625 -1.914062 0.625 -2.84375 C 0.625 -3.445312 0.722656 -3.984375 0.921875 -4.453125 C 1.117188 -4.921875 1.398438 -5.285156 1.765625 -5.546875 C 2.128906 -5.816406 2.554688 -5.953125 3.046875 -5.953125 C 3.816406 -5.953125 4.40625 -5.695312 4.8125 -5.1875 C 5.226562 -4.675781 5.4375 -3.972656 5.4375 -3.078125 Z M 4.4375 -3.375 C 4.4375 -3.945312 4.320312 -4.382812 4.09375 -4.6875 C 3.863281 -4.988281 3.519531 -5.140625 3.0625 -5.140625 C 2.226562 -5.140625 1.773438 -4.53125 1.703125 -3.3125 L 4.4375 -3.3125 Z M 4.4375 -3.375 "/></g></g></g><g fill="#fefaeb" fill-opacity="1"><g transform="translate(307.743971, 231.82248)"><g><path d="M 3.78125 -5.953125 C 4.3125 -5.953125 4.722656 -5.789062 5.015625 -5.46875 C 5.316406 -5.15625 5.46875 -4.722656 5.46875 -4.171875 L 5.46875 0 L 4.453125 0 L 4.453125 -4.03125 C 4.453125 -4.4375 4.375 -4.722656 4.21875 -4.890625 C 4.070312 -5.066406 3.847656 -5.15625 3.546875 -5.15625 C 3.234375 -5.15625 2.957031 -5.066406 2.71875 -4.890625 C 2.488281 -4.710938 2.269531 -4.457031 2.0625 -4.125 L 2.0625 0 L 1.046875 0 L 1.046875 -5.8125 L 1.921875 -5.8125 L 2 -4.953125 C 2.207031 -5.265625 2.460938 -5.507812 2.765625 -5.6875 C 3.078125 -5.863281 3.414062 -5.953125 3.78125 -5.953125 Z M 3.78125 -5.953125 "/></g></g></g><g fill="#fefaeb" fill-opacity="1"><g transform="translate(314.752841, 231.82248)"><g><path d="M 3.984375 -0.265625 C 3.597656 -0.00390625 3.164062 0.125 2.6875 0.125 C 2.1875 0.125 1.796875 -0.015625 1.515625 -0.296875 C 1.242188 -0.578125 1.109375 -0.984375 1.109375 -1.515625 L 1.109375 -5.03125 L 0.09375 -5.03125 L 0.09375 -5.8125 L 1.109375 -5.8125 L 1.109375 -7.125 L 2.125 -7.25 L 2.125 -5.8125 L 3.515625 -5.8125 L 3.390625 -5.03125 L 2.125 -5.03125 L 2.125 -1.5625 C 2.125 -1.257812 2.175781 -1.039062 2.28125 -0.90625 C 2.394531 -0.769531 2.578125 -0.703125 2.828125 -0.703125 C 3.054688 -0.703125 3.3125 -0.78125 3.59375 -0.9375 Z M 3.984375 -0.265625 "/></g></g></g><g fill="#fefaeb" fill-opacity="1"><g transform="translate(319.282343, 231.82248)"><g><path d="M 3.234375 -5.953125 C 4.046875 -5.953125 4.675781 -5.675781 5.125 -5.125 C 5.582031 -4.582031 5.8125 -3.84375 5.8125 -2.90625 C 5.8125 -2.300781 5.707031 -1.769531 5.5 -1.3125 C 5.300781 -0.851562 5.003906 -0.5 4.609375 -0.25 C 4.222656 0 3.757812 0.125 3.21875 0.125 C 2.40625 0.125 1.769531 -0.144531 1.3125 -0.6875 C 0.851562 -1.226562 0.625 -1.96875 0.625 -2.90625 C 0.625 -3.507812 0.726562 -4.039062 0.9375 -4.5 C 1.144531 -4.957031 1.441406 -5.3125 1.828125 -5.5625 C 2.222656 -5.820312 2.691406 -5.953125 3.234375 -5.953125 Z M 3.234375 -5.125 C 2.222656 -5.125 1.71875 -4.382812 1.71875 -2.90625 C 1.71875 -1.425781 2.21875 -0.6875 3.21875 -0.6875 C 4.21875 -0.6875 4.71875 -1.425781 4.71875 -2.90625 C 4.71875 -4.382812 4.222656 -5.125 3.234375 -5.125 Z M 3.234375 -5.125 "/></g></g></g><g fill="#fefaeb" fill-opacity="1"><g transform="translate(326.269165, 231.82248)"><g><path d="M 1.3125 -1.40625 C 1.53125 -1.40625 1.710938 -1.328125 1.859375 -1.171875 C 2.003906 -1.023438 2.078125 -0.847656 2.078125 -0.640625 C 2.078125 -0.421875 2.003906 -0.238281 1.859375 -0.09375 C 1.710938 0.0507812 1.53125 0.125 1.3125 0.125 C 1.101562 0.125 0.921875 0.0507812 0.765625 -0.09375 C 0.617188 -0.238281 0.546875 -0.421875 0.546875 -0.640625 C 0.546875 -0.847656 0.617188 -1.023438 0.765625 -1.171875 C 0.921875 -1.328125 1.101562 -1.40625 1.3125 -1.40625 Z M 1.3125 -1.40625 "/></g></g></g><g fill="#fefaeb" fill-opacity="1"><g transform="translate(138.227628, 186.423756)"><g><path d="M 3.53125 -14.953125 C 4.269531 -14.953125 4.898438 -14.691406 5.421875 -14.171875 C 5.941406 -13.660156 6.203125 -13.039062 6.203125 -12.3125 C 6.203125 -11.59375 5.941406 -10.972656 5.421875 -10.453125 C 4.898438 -9.929688 4.269531 -9.671875 3.53125 -9.671875 C 2.800781 -9.671875 2.175781 -9.929688 1.65625 -10.453125 C 1.132812 -10.972656 0.875 -11.59375 0.875 -12.3125 C 0.875 -13.039062 1.132812 -13.660156 1.65625 -14.171875 C 2.175781 -14.691406 2.800781 -14.953125 3.53125 -14.953125 Z M 5.40625 -6.90625 L 6.03125 6.171875 L 1.09375 6.171875 L 1.671875 -6.90625 Z M 5.40625 -6.90625 "/></g></g></g><g fill="#fefaeb" fill-opacity="1"><g transform="translate(145.573848, 186.423756)"><g><path d="M 14.40625 -20.375 L 13.90625 -16.921875 L 6.734375 -16.921875 L 6.734375 -12.046875 L 12.984375 -12.046875 L 12.984375 -8.671875 L 6.734375 -8.671875 L 6.734375 -3.46875 L 14.40625 -3.46875 L 14.40625 0 L 1.90625 0 L 1.90625 -20.375 Z M 14.40625 -20.375 "/></g></g></g><g fill="#fefaeb" fill-opacity="1"><g transform="translate(161.324132, 186.423756)"><g><path d="M 10.28125 -16.046875 C 10.851562 -16.046875 11.375 -15.976562 11.84375 -15.84375 L 11.109375 -11.34375 C 10.523438 -11.476562 10.054688 -11.546875 9.703125 -11.546875 C 8.773438 -11.546875 8.070312 -11.226562 7.59375 -10.59375 C 7.113281 -9.957031 6.738281 -9.003906 6.46875 -7.734375 L 6.46875 0 L 1.828125 0 L 1.828125 -15.609375 L 5.875 -15.609375 L 6.265625 -12.578125 C 6.617188 -13.660156 7.148438 -14.507812 7.859375 -15.125 C 8.578125 -15.738281 9.382812 -16.046875 10.28125 -16.046875 Z M 10.28125 -16.046875 "/></g></g></g><g fill="#fefaeb" fill-opacity="1"><g transform="translate(173.401309, 186.423756)"><g><path d="M 10.28125 -16.046875 C 10.851562 -16.046875 11.375 -15.976562 11.84375 -15.84375 L 11.109375 -11.34375 C 10.523438 -11.476562 10.054688 -11.546875 9.703125 -11.546875 C 8.773438 -11.546875 8.070312 -11.226562 7.59375 -10.59375 C 7.113281 -9.957031 6.738281 -9.003906 6.46875 -7.734375 L 6.46875 0 L 1.828125 0 L 1.828125 -15.609375 L 5.875 -15.609375 L 6.265625 -12.578125 C 6.617188 -13.660156 7.148438 -14.507812 7.859375 -15.125 C 8.578125 -15.738281 9.382812 -16.046875 10.28125 -16.046875 Z M 10.28125 -16.046875 "/></g></g></g><g fill="#fefaeb" fill-opacity="1"><g transform="translate(185.478489, 186.423756)"><g><path d="M 8.578125 -16.109375 C 10.972656 -16.109375 12.84375 -15.378906 14.1875 -13.921875 C 15.539062 -12.460938 16.21875 -10.414062 16.21875 -7.78125 C 16.21875 -6.125 15.910156 -4.671875 15.296875 -3.421875 C 14.679688 -2.179688 13.800781 -1.21875 12.65625 -0.53125 C 11.507812 0.15625 10.148438 0.5 8.578125 0.5 C 6.210938 0.5 4.347656 -0.226562 2.984375 -1.6875 C 1.617188 -3.144531 0.9375 -5.1875 0.9375 -7.8125 C 0.9375 -9.476562 1.242188 -10.929688 1.859375 -12.171875 C 2.484375 -13.421875 3.367188 -14.390625 4.515625 -15.078125 C 5.660156 -15.765625 7.015625 -16.109375 8.578125 -16.109375 Z M 8.578125 -12.703125 C 7.640625 -12.703125 6.9375 -12.300781 6.46875 -11.5 C 6 -10.707031 5.765625 -9.476562 5.765625 -7.8125 C 5.765625 -6.113281 5.992188 -4.867188 6.453125 -4.078125 C 6.910156 -3.296875 7.617188 -2.90625 8.578125 -2.90625 C 9.523438 -2.90625 10.234375 -3.300781 10.703125 -4.09375 C 11.171875 -4.894531 11.40625 -6.125 11.40625 -7.78125 C 11.40625 -9.488281 11.171875 -10.734375 10.703125 -11.515625 C 10.242188 -12.304688 9.535156 -12.703125 8.578125 -12.703125 Z M 8.578125 -12.703125 "/></g></g></g><g fill="#fefaeb" fill-opacity="1"><g transform="translate(202.933092, 186.423756)"><g><path d="M 10.28125 -16.046875 C 10.851562 -16.046875 11.375 -15.976562 11.84375 -15.84375 L 11.109375 -11.34375 C 10.523438 -11.476562 10.054688 -11.546875 9.703125 -11.546875 C 8.773438 -11.546875 8.070312 -11.226562 7.59375 -10.59375 C 7.113281 -9.957031 6.738281 -9.003906 6.46875 -7.734375 L 6.46875 0 L 1.828125 0 L 1.828125 -15.609375 L 5.875 -15.609375 L 6.265625 -12.578125 C 6.617188 -13.660156 7.148438 -14.507812 7.859375 -15.125 C 8.578125 -15.738281 9.382812 -16.046875 10.28125 -16.046875 Z M 10.28125 -16.046875 "/></g></g></g><g fill="#fefaeb" fill-opacity="1"><g transform="translate(215.010272, 186.423756)"><g/></g></g><g fill="#fefaeb" fill-opacity="1"><g transform="translate(222.268337, 186.423756)"><g><path d="M 15.984375 -7.765625 L 15.984375 -4.296875 L 13.75 -4.296875 L 13.75 0 L 9.234375 0 L 9.203125 -4.296875 L 0.828125 -4.296875 L 0.828125 -7.375 L 6.46875 -20.375 L 10.40625 -18.890625 L 5.609375 -7.765625 L 9.265625 -7.765625 L 9.75 -12.46875 L 13.75 -12.46875 L 13.75 -7.765625 Z M 15.984375 -7.765625 "/></g></g></g><g fill="#fefaeb" fill-opacity="1"><g transform="translate(239.164626, 186.423756)"><g><path d="M 8.609375 -20.28125 C 11.035156 -20.28125 12.890625 -19.390625 14.171875 -17.609375 C 15.460938 -15.828125 16.109375 -13.257812 16.109375 -9.90625 C 16.109375 -6.570312 15.460938 -4.003906 14.171875 -2.203125 C 12.890625 -0.398438 11.035156 0.5 8.609375 0.5 C 6.179688 0.5 4.320312 -0.398438 3.03125 -2.203125 C 1.75 -4.003906 1.109375 -6.570312 1.109375 -9.90625 C 1.109375 -13.257812 1.75 -15.828125 3.03125 -17.609375 C 4.320312 -19.390625 6.179688 -20.28125 8.609375 -20.28125 Z M 8.609375 -16.84375 C 7.941406 -16.84375 7.410156 -16.625 7.015625 -16.1875 C 6.628906 -15.757812 6.34375 -15.046875 6.15625 -14.046875 C 5.96875 -13.046875 5.875 -11.664062 5.875 -9.90625 C 5.875 -8.144531 5.96875 -6.757812 6.15625 -5.75 C 6.34375 -4.738281 6.628906 -4.015625 7.015625 -3.578125 C 7.410156 -3.148438 7.941406 -2.9375 8.609375 -2.9375 C 9.273438 -2.9375 9.800781 -3.144531 10.1875 -3.5625 C 10.582031 -3.988281 10.875 -4.707031 11.0625 -5.71875 C 11.25 -6.726562 11.34375 -8.125 11.34375 -9.90625 C 11.34375 -11.6875 11.25 -13.082031 11.0625 -14.09375 C 10.875 -15.101562 10.582031 -15.8125 10.1875 -16.21875 C 9.800781 -16.632812 9.273438 -16.84375 8.609375 -16.84375 Z M 8.609375 -16.84375 "/></g></g></g><g fill="#fefaeb" fill-opacity="1"><g transform="translate(256.648622, 186.423756)"><g><path d="M 15.984375 -7.765625 L 15.984375 -4.296875 L 13.75 -4.296875 L 13.75 0 L 9.234375 0 L 9.203125 -4.296875 L 0.828125 -4.296875 L 0.828125 -7.375 L 6.46875 -20.375 L 10.40625 -18.890625 L 5.609375 -7.765625 L 9.265625 -7.765625 L 9.75 -12.46875 L 13.75 -12.46875 L 13.75 -7.765625 Z M 15.984375 -7.765625 "/></g></g></g><g fill="#fefaeb" fill-opacity="1"><g transform="translate(273.544917, 186.423756)"><g><path d="M 6 -20.375 L 5.40625 -7.5 L 1.640625 -7.5 L 1.0625 -20.375 Z M 3.53125 -4.8125 C 4.269531 -4.8125 4.898438 -4.550781 5.421875 -4.03125 C 5.941406 -3.519531 6.203125 -2.898438 6.203125 -2.171875 C 6.203125 -1.429688 5.941406 -0.800781 5.421875 -0.28125 C 4.898438 0.238281 4.269531 0.5 3.53125 0.5 C 2.800781 0.5 2.175781 0.238281 1.65625 -0.28125 C 1.132812 -0.800781 0.875 -1.429688 0.875 -2.171875 C 0.875 -2.898438 1.132812 -3.519531 1.65625 -4.03125 C 2.175781 -4.550781 2.800781 -4.8125 3.53125 -4.8125 Z M 3.53125 -4.8125 "/></g></g></g><g clip-path="url(#id6)"><path fill="#fefaeb" d="M 63.769531 204.039062 L 355.746094 204.039062 L 355.746094 206.285156 L 63.769531 206.285156 L 63.769531 204.039062 " fill-opacity="1" fill-rule="nonzero"/></g><path fill="#ffffff" d="M 351.507812 240.6875 L 342.53125 237.695312 L 345.523438 246.671875 L 347.375 244.820312 L 349.507812 246.953125 L 351.789062 244.671875 L 349.65625 242.539062 L 351.507812 240.6875 " fill-opacity="1" fill-rule="nonzero"/><path fill="#37424f" d="M 351.507812 240.6875 L 351.53125 240.617188 L 342.554688 237.625 C 342.527344 237.617188 342.5 237.621094 342.480469 237.640625 C 342.460938 237.664062 342.453125 237.691406 342.460938 237.71875 L 345.453125 246.695312 C 345.460938 246.71875 345.480469 246.738281 345.503906 246.742188 C 345.53125 246.746094 345.558594 246.742188 345.574219 246.722656 L 347.375 244.921875 L 349.457031 247.003906 C 349.46875 247.019531 349.488281 247.027344 349.507812 247.027344 C 349.527344 247.027344 349.546875 247.019531 349.558594 247.003906 L 351.839844 244.722656 C 351.855469 244.710938 351.863281 244.691406 351.863281 244.671875 C 351.863281 244.652344 351.855469 244.632812 351.839844 244.617188 L 349.761719 242.539062 L 351.558594 240.738281 C 351.578125 240.71875 351.585938 240.695312 351.578125 240.667969 C 351.574219 240.644531 351.554688 240.625 351.53125 240.617188 L 351.507812 240.6875 L 351.453125 240.632812 L 349.601562 242.484375 C 349.589844 242.5 349.582031 242.519531 349.582031 242.539062 C 349.582031 242.558594 349.589844 242.574219 349.601562 242.589844 L 351.683594 244.671875 L 349.507812 246.847656 L 347.425781 244.765625 C 347.414062 244.753906 347.394531 244.746094 347.375 244.746094 C 347.355469 244.746094 347.335938 244.753906 347.320312 244.765625 L 345.554688 246.535156 L 342.648438 237.8125 L 351.484375 240.757812 L 351.507812 240.6875 L 351.453125 240.632812 L 351.507812 240.6875 " fill-opacity="1" fill-rule="nonzero"/><g clip-path="url(#id7)"><path fill="#ffffff" d="M 173.746094 83.132812 L 176.609375 80.140625 C 178.289062 78.472656 181.113281 79.050781 181.113281 79.050781 L 189.5 80.191406 L 193.746094 76.0625 C 195.980469 73.882812 198.003906 77.21875 197.125 78.371094 L 194.941406 80.890625 L 203.972656 82.550781 L 207.039062 79 C 210.3125 75.113281 212.75 78.617188 211.273438 80.679688 L 209.292969 83.167969 L 222.859375 84.925781 C 234.523438 73.773438 239.285156 69.148438 242.355469 71.898438 C 245.445312 74.664062 239.980469 80.175781 229.355469 91.046875 L 231.28125 104.933594 L 234.125 102.582031 C 235.804688 101.191406 238.78125 103.417969 235.707031 106.316406 L 231.796875 109.976562 L 233.445312 119.066406 L 235.890625 117.199219 C 238.046875 115.492188 240.664062 117.753906 237.75 120.847656 L 233.867188 124.730469 C 233.707031 124.847656 235.136719 132.703125 235.136719 132.703125 C 236.015625 136.550781 233.828125 137.957031 233.828125 137.957031 L 231.164062 140.265625 L 221.039062 111.855469 C 220.199219 109.355469 218.070312 106.640625 214.519531 106.960938 C 212.640625 107.160156 207.898438 110.339844 207.257812 111.09375 L 196.28125 121.585938 C 196 121.78125 197.96875 135.21875 197.96875 135.21875 C 197.96875 135.613281 194.488281 140.148438 194.488281 140.148438 L 187.527344 127.847656 L 184.09375 129.433594 L 186.101562 126.328125 L 173.574219 119.304688 L 178.273438 115.890625 C 180.507812 116.40625 192.238281 117.71875 192.476562 117.597656 C 192.476562 117.597656 202.03125 108.1875 202.574219 107.621094 C 205.730469 104.328125 206.792969 103.09375 207.269531 101.46875 C 207.75 99.839844 206.933594 97.453125 201.980469 94.433594 C 195.148438 90.265625 173.746094 83.132812 173.746094 83.132812 Z M 173.746094 83.132812 " fill-opacity="1" fill-rule="nonzero"/></g></svg>