<svg xmlns="http://www.w3.org/2000/svg" xmlns:xlink="http://www.w3.org/1999/xlink" width="500" zoomAndPan="magnify" viewBox="0 0 375 374.999991" height="500" preserveAspectRatio="xMidYMid meet" version="1.0"><defs><clipPath id="id1"><path d="M 26 45.339844 L 266 45.339844 L 266 199 L 26 199 Z M 26 45.339844 " clip-rule="nonzero"/></clipPath><clipPath id="id2"><path d="M 34 167 L 312 167 L 312 329.589844 L 34 329.589844 Z M 34 167 " clip-rule="nonzero"/></clipPath></defs><g clip-path="url(#id1)"><path fill="#1ccdf4" d="M 49.394531 196.378906 C 49.175781 193.4375 49.058594 190.464844 49.058594 187.464844 C 49.058594 175.335938 50.867188 163.640625 54.214844 152.605469 C 58.804688 165.519531 74.925781 174.914062 86.140625 181.464844 C 89.417969 183.386719 92.796875 185.179688 95.945312 187.277344 C 101.960938 185.703125 107.902344 183.972656 113.773438 182.105469 C 112.621094 178.945312 112.082031 174.824219 112.738281 172.65625 C 114.382812 167.253906 119.421875 168.667969 124.140625 168.257812 C 139.609375 166.917969 134.847656 142.03125 141.738281 132.785156 C 146.777344 126.015625 156.941406 121.90625 156.984375 113.476562 C 157.015625 106.488281 149.527344 101.230469 149.398438 94.238281 C 149.382812 93.542969 149.441406 92.84375 149.558594 92.144531 C 149.964844 89.464844 151.027344 86.828125 150.839844 84.132812 C 150.445312 78.71875 145.40625 74.902344 141.257812 70.925781 C 150.113281 68.84375 159.347656 67.722656 168.84375 67.722656 C 181.164062 67.722656 193.0625 69.585938 204.25 73.050781 C 201.105469 81.703125 208.007812 96.496094 215.683594 101.359375 C 221.449219 105.015625 229.550781 106.441406 232.128906 112.761719 C 232.578125 113.882812 232.78125 115.003906 232.828125 116.113281 C 243.34375 106.996094 253.246094 97.195312 262.464844 86.726562 C 263.804688 85.210938 264.753906 84.132812 265.597656 83.375 C 240.226562 59.785156 206.230469 45.355469 168.84375 45.355469 C 90.335938 45.355469 26.6875 108.992188 26.6875 187.480469 C 26.6875 191.265625 26.832031 195.007812 27.125 198.707031 C 34.625 198.125 42.039062 197.351562 49.394531 196.378906 Z M 49.394531 196.378906 " fill-opacity="1" fill-rule="nonzero"/></g><g clip-path="url(#id2)"><path fill="#1ccdf4" d="M 292.890625 178.074219 C 291.871094 178.65625 291.128906 179.09375 290.792969 179.296875 C 267.460938 193.554688 242.453125 205.347656 216.308594 214.492188 C 216.179688 215.671875 216.164062 216.835938 216.382812 218.003906 C 217.5625 224.613281 224.042969 230.25 230.742188 230.453125 C 233.832031 230.554688 237.328125 229.828125 239.714844 231.792969 C 241.15625 232.988281 241.785156 234.878906 242.277344 236.683594 C 245.527344 248.496094 246.414062 260.945312 244.871094 273.089844 C 244.566406 275.535156 244.171875 278.027344 244.316406 280.472656 C 223.722656 297.203125 197.460938 307.238281 168.855469 307.238281 C 163.132812 307.238281 157.496094 306.832031 151.992188 306.042969 C 152.046875 305.039062 152.136719 304.050781 152.28125 303.058594 C 153.054688 298.0625 155.675781 293.390625 159.535156 290.128906 C 162.097656 287.972656 165.476562 285.875 165.566406 282.527344 C 165.652344 278.929688 161.925781 276.671875 159.417969 274.09375 C 154.523438 269.070312 153.941406 261.078125 158.179688 255.746094 C 163.699219 248.816406 168.945312 241.5625 174.144531 234.3125 C 175.90625 231.851562 177.769531 229.054688 177.347656 226.054688 C 177.347656 226.027344 177.332031 226.011719 177.332031 225.980469 C 154.945312 231.371094 131.976562 234.910156 108.734375 236.480469 C 103.183594 236.859375 97.675781 237.109375 92.203125 237.269531 C 91.675781 242.320312 92.085938 247.492188 93.542969 252.0625 C 96.671875 261.890625 105.179688 269.449219 114.863281 273.003906 C 117.414062 273.933594 120.121094 274.648438 122.261719 276.308594 C 124.417969 277.96875 125.875 280.925781 124.839844 283.429688 C 124.230469 284.929688 122.800781 286.152344 122.789062 287.769531 C 122.773438 288.890625 123.457031 289.878906 124.097656 290.785156 C 125.292969 292.441406 127.550781 296.417969 130.230469 300.875 C 98.828125 290.1875 73.296875 266.800781 59.722656 236.859375 C 55.976562 236.65625 52.25 236.410156 48.566406 236.089844 L 48.027344 236.042969 C 44.269531 235.722656 39.652344 235.316406 34.714844 234.617188 C 54.15625 289.9375 106.867188 329.605469 168.855469 329.605469 C 247.363281 329.605469 311.011719 265.96875 311.011719 187.480469 C 311.011719 180.78125 310.53125 174.183594 309.640625 167.734375 C 306.394531 170.179688 301.136719 173.3125 292.890625 178.074219 Z M 292.890625 178.074219 " fill-opacity="1" fill-rule="nonzero"/></g><path fill="#1ccdf4" d="M 218.84375 134.109375 C 217.328125 133.5 160.527344 189.007812 47.371094 202.378906 C 40.699219 203.164062 20.382812 205.390625 14.875 204.386719 C 8.628906 203.25 3.414062 199.449219 9.589844 188.382812 C 5.394531 193.421875 0.324219 197.515625 0.265625 204.808594 C 0.0625 226.535156 33.476562 229.171875 49.046875 230.511719 C 68.75 232.214844 96.601562 230.351562 116.085938 226.988281 C 163.585938 218.773438 188.113281 203.820312 245.117188 175.234375 C 245.117188 175.234375 245.132812 158.558594 245.117188 145.964844 C 245.089844 145.933594 234.339844 140.417969 218.84375 134.109375 Z M 218.84375 134.109375 " fill-opacity="1" fill-rule="nonzero"/><path fill="#1ccdf4" d="M 370.929688 68.539062 C 366.957031 62.203125 350.4375 65.347656 344.101562 69.324219 L 337.242188 73.636719 L 269.222656 57.253906 C 267.273438 56.683594 265.015625 57.046875 263.121094 58.226562 C 259.144531 60.71875 258.269531 65.769531 261.359375 68.421875 L 296.984375 96.539062 L 260.078125 128.664062 L 242.65625 121.339844 C 240.605469 120.480469 238.273438 120.671875 236.394531 121.847656 L 230.261719 125.695312 C 228.820312 126.597656 228.894531 128.707031 230.394531 129.507812 L 253.113281 141.945312 L 254.179688 167.429688 C 254.25 169.117188 256.128906 170.109375 257.558594 169.207031 L 263.6875 165.359375 C 265.566406 164.179688 266.761719 162.15625 266.878906 159.945312 L 267.78125 142.570312 L 311.054688 122.171875 L 322.253906 173.777344 C 323.289062 177.710938 328.210938 179.121094 332.1875 176.632812 C 334.082031 175.453125 335.394531 173.574219 335.726562 171.5625 L 351.691406 96.671875 L 358.550781 92.363281 C 364.886719 88.386719 374.90625 74.871094 370.929688 68.539062 Z M 357.632812 87.308594 C 358.972656 76.152344 347.917969 71.742188 347.917969 71.742188 C 347.917969 71.742188 359.207031 66.457031 363.285156 72.980469 C 367.582031 79.851562 357.632812 87.308594 357.632812 87.308594 Z M 357.632812 87.308594 " fill-opacity="1" fill-rule="nonzero"/></svg>